<svg width="269" height="141" viewBox="0 0 269 141" fill="none" xmlns="http://www.w3.org/2000/svg">
<path d="M66.78 64.796H58.608V86H53.676V64.796H45.504V60.44H66.78V64.796ZM74.0838 86.36C72.5478 86.36 71.1678 86.096 69.9438 85.568C68.7198 85.04 67.6758 84.332 66.8118 83.444C65.9718 82.532 65.3238 81.488 64.8678 80.312C64.4118 79.136 64.1838 77.9 64.1838 76.604C64.1838 75.284 64.4118 74.036 64.8678 72.86C65.3238 71.684 65.9718 70.652 66.8118 69.764C67.6758 68.852 68.7198 68.132 69.9438 67.604C71.1678 67.076 72.5478 66.812 74.0838 66.812C75.6198 66.812 76.9878 67.076 78.1878 67.604C79.4118 68.132 80.4438 68.852 81.2838 69.764C82.1478 70.652 82.8078 71.684 83.2638 72.86C83.7198 74.036 83.9478 75.284 83.9478 76.604C83.9478 77.9 83.7198 79.136 83.2638 80.312C82.8078 81.488 82.1598 82.532 81.3198 83.444C80.4798 84.332 79.4478 85.04 78.2238 85.568C76.9998 86.096 75.6198 86.36 74.0838 86.36ZM69.1518 76.604C69.1518 77.444 69.2718 78.212 69.5118 78.908C69.7758 79.58 70.1238 80.168 70.5558 80.672C71.0118 81.176 71.5398 81.572 72.1398 81.86C72.7398 82.124 73.3878 82.256 74.0838 82.256C74.7798 82.256 75.4278 82.124 76.0278 81.86C76.6278 81.572 77.1438 81.176 77.5758 80.672C78.0318 80.168 78.3798 79.568 78.6198 78.872C78.8838 78.176 79.0158 77.408 79.0158 76.568C79.0158 75.752 78.8838 74.996 78.6198 74.3C78.3798 73.604 78.0318 73.004 77.5758 72.5C77.1438 71.996 76.6278 71.612 76.0278 71.348C75.4278 71.06 74.7798 70.916 74.0838 70.916C73.3878 70.916 72.7398 71.06 72.1398 71.348C71.5398 71.636 71.0118 72.032 70.5558 72.536C70.1238 73.04 69.7758 73.64 69.5118 74.336C69.2718 75.032 69.1518 75.788 69.1518 76.604ZM95.0158 86.36C93.7198 86.36 92.5198 86.108 91.4158 85.604C90.3118 85.1 89.3638 84.404 88.5718 83.516C87.7798 82.628 87.1558 81.596 86.6998 80.42C86.2678 79.22 86.0518 77.936 86.0518 76.568C86.0518 75.2 86.2558 73.928 86.6638 72.752C87.0958 71.576 87.6838 70.544 88.4278 69.656C89.1718 68.768 90.0598 68.072 91.0918 67.568C92.1238 67.064 93.2518 66.812 94.4758 66.812C95.8678 66.812 97.1158 67.148 98.2198 67.82C99.3478 68.492 100.224 69.368 100.848 70.448V59.72H105.672V80.456C105.672 80.96 105.756 81.32 105.924 81.536C106.092 81.752 106.38 81.872 106.788 81.896V86C105.948 86.168 105.264 86.252 104.736 86.252C103.872 86.252 103.164 86.036 102.612 85.604C102.06 85.172 101.748 84.608 101.676 83.912L101.568 82.724C100.872 83.924 99.9238 84.836 98.7238 85.46C97.5478 86.06 96.3118 86.36 95.0158 86.36ZM96.2758 82.256C96.7318 82.256 97.1998 82.184 97.6798 82.04C98.1598 81.872 98.6038 81.644 99.0118 81.356C99.4198 81.068 99.7798 80.732 100.092 80.348C100.428 79.964 100.68 79.544 100.848 79.088V74.588C100.656 74.06 100.38 73.58 100.02 73.148C99.6838 72.692 99.2878 72.308 98.8318 71.996C98.3998 71.66 97.9318 71.396 97.4278 71.204C96.9478 71.012 96.4678 70.916 95.9878 70.916C95.2678 70.916 94.5958 71.072 93.9718 71.384C93.3718 71.696 92.8558 72.128 92.4238 72.68C91.9918 73.208 91.6558 73.82 91.4158 74.516C91.1758 75.212 91.0558 75.932 91.0558 76.676C91.0558 77.468 91.1878 78.2 91.4518 78.872C91.7158 79.544 92.0758 80.132 92.5318 80.636C92.9878 81.14 93.5278 81.536 94.1518 81.824C94.7998 82.112 95.5078 82.256 96.2758 82.256ZM115.555 86.36C114.643 86.36 113.791 86.216 112.999 85.928C112.207 85.616 111.523 85.196 110.947 84.668C110.371 84.116 109.915 83.48 109.579 82.76C109.267 82.04 109.111 81.248 109.111 80.384C109.111 79.496 109.303 78.68 109.687 77.936C110.095 77.168 110.647 76.52 111.343 75.992C112.063 75.464 112.915 75.056 113.899 74.768C114.883 74.456 115.963 74.3 117.139 74.3C117.979 74.3 118.795 74.372 119.587 74.516C120.403 74.66 121.123 74.864 121.747 75.128V74.048C121.747 72.8 121.387 71.84 120.667 71.168C119.971 70.496 118.927 70.16 117.535 70.16C116.527 70.16 115.543 70.34 114.583 70.7C113.623 71.06 112.639 71.588 111.631 72.284L110.155 69.224C112.579 67.616 115.195 66.812 118.003 66.812C120.715 66.812 122.815 67.484 124.303 68.828C125.815 70.148 126.571 72.068 126.571 74.588V80.456C126.571 80.96 126.655 81.32 126.823 81.536C127.015 81.752 127.315 81.872 127.723 81.896V86C126.907 86.168 126.199 86.252 125.599 86.252C124.687 86.252 123.979 86.048 123.475 85.64C122.995 85.232 122.695 84.692 122.575 84.02L122.467 82.976C121.627 84.08 120.607 84.92 119.407 85.496C118.207 86.072 116.923 86.36 115.555 86.36ZM116.923 82.832C117.739 82.832 118.507 82.688 119.227 82.4C119.971 82.112 120.547 81.728 120.955 81.248C121.483 80.84 121.747 80.384 121.747 79.88V77.72C121.171 77.504 120.547 77.336 119.875 77.216C119.203 77.072 118.555 77 117.931 77C116.683 77 115.663 77.288 114.871 77.864C114.079 78.416 113.683 79.124 113.683 79.988C113.683 80.804 113.995 81.488 114.619 82.04C115.243 82.568 116.011 82.832 116.923 82.832ZM131.018 89.672C131.426 89.792 131.822 89.876 132.206 89.924C132.59 89.996 132.914 90.032 133.178 90.032C133.49 90.032 133.778 89.972 134.042 89.852C134.306 89.732 134.546 89.516 134.762 89.204C134.978 88.916 135.194 88.508 135.41 87.98C135.626 87.452 135.854 86.792 136.094 86L128.642 67.136H133.61L138.722 81.824L143.258 67.136H147.794L139.874 89.744C139.418 91.064 138.638 92.144 137.534 92.984C136.43 93.824 135.062 94.244 133.43 94.244C133.046 94.244 132.65 94.208 132.242 94.136C131.858 94.088 131.45 93.992 131.018 93.848V89.672ZM171.943 85.388C171.919 85.412 171.775 85.472 171.511 85.568C171.247 85.664 170.899 85.772 170.467 85.892C170.035 85.988 169.543 86.072 168.991 86.144C168.463 86.24 167.935 86.288 167.407 86.288C166.639 86.288 165.955 86.18 165.355 85.964C164.779 85.748 164.287 85.46 163.879 85.1C163.471 84.716 163.159 84.284 162.943 83.804C162.727 83.324 162.619 82.808 162.619 82.256V67.388C162.619 66.86 162.571 66.356 162.475 65.876C162.403 65.396 162.247 64.976 162.007 64.616C161.791 64.256 161.479 63.98 161.071 63.788C160.687 63.572 160.195 63.464 159.595 63.464C158.419 63.464 157.591 63.836 157.111 64.58C156.655 65.324 156.415 66.296 156.391 67.496V68.144H159.523V71.816H156.391V86H151.567V71.816H149.083V68.144H151.567V66.56C151.567 64.232 152.263 62.456 153.655 61.232C155.047 59.984 156.979 59.36 159.451 59.36C162.187 59.36 164.203 60.008 165.499 61.304C166.795 62.6 167.443 64.304 167.443 66.416V79.844C167.443 80.084 167.467 80.336 167.515 80.6C167.587 80.84 167.695 81.068 167.839 81.284C167.983 81.476 168.163 81.644 168.379 81.788C168.595 81.908 168.859 81.968 169.171 81.968C169.387 81.968 169.615 81.944 169.855 81.896C170.095 81.848 170.311 81.8 170.503 81.752C170.719 81.68 170.899 81.62 171.043 81.572C171.187 81.524 171.259 81.5 171.259 81.5L171.943 85.388ZM182.823 86.36C181.311 86.36 179.943 86.108 178.719 85.604C177.495 85.076 176.451 84.368 175.587 83.48C174.723 82.592 174.051 81.56 173.571 80.384C173.115 79.208 172.887 77.972 172.887 76.676C172.887 75.332 173.115 74.072 173.571 72.896C174.027 71.696 174.687 70.652 175.551 69.764C176.415 68.852 177.459 68.132 178.683 67.604C179.931 67.076 181.323 66.812 182.859 66.812C184.395 66.812 185.763 67.076 186.963 67.604C188.187 68.132 189.219 68.84 190.059 69.728C190.923 70.616 191.571 71.648 192.003 72.824C192.459 74 192.687 75.224 192.687 76.496C192.687 76.808 192.675 77.108 192.651 77.396C192.651 77.684 192.627 77.924 192.579 78.116H177.999C178.071 78.86 178.251 79.52 178.539 80.096C178.827 80.672 179.199 81.164 179.655 81.572C180.111 81.98 180.627 82.292 181.203 82.508C181.779 82.724 182.379 82.832 183.003 82.832C183.963 82.832 184.863 82.604 185.703 82.148C186.567 81.668 187.155 81.044 187.467 80.276L191.607 81.428C190.911 82.868 189.795 84.056 188.259 84.992C186.747 85.904 184.935 86.36 182.823 86.36ZM187.719 74.984C187.599 73.568 187.071 72.44 186.135 71.6C185.223 70.736 184.107 70.304 182.787 70.304C182.139 70.304 181.527 70.424 180.951 70.664C180.399 70.88 179.907 71.192 179.475 71.6C179.043 72.008 178.683 72.5 178.395 73.076C178.131 73.652 177.975 74.288 177.927 74.984H187.719ZM197.946 67.136L202.014 73.04L202.302 73.688L202.662 73.04L206.694 67.136H211.662L204.93 76.604L211.77 86H206.802L202.626 80.132L202.302 79.52L202.014 80.132L197.874 86H192.906L199.71 76.604L193.014 67.136H197.946Z" fill="black"/>
<path d="M201.643 43.6482C203.056 38.6244 204.468 33.0762 208.016 29.0589C211.688 24.9013 216.251 23.3596 221.454 21.745C223.207 21.2008 225.397 21.5339 227.232 21.5339C228.561 21.5339 230.571 21.124 231.704 21.8794" stroke="black" stroke-linecap="round" stroke-linejoin="round"/>
<path d="M226.521 16.6964C229.069 18.2128 231.927 19.6365 234.642 20.8428C235.377 21.1698 232.866 23.137 232.357 23.6455C231.266 24.7363 230.377 25.9708 229.286 27.0625" stroke="black" stroke-linecap="round" stroke-linejoin="round"/>
<path d="M238.996 17.804C239.709 19.0296 239.632 19.7489 239.854 21.0538C239.953 21.6363 240.215 22.0812 240.215 22.6787C240.215 23.4383 240.824 23.9902 240.824 24.7099C240.824 25.044 240.73 25.8167 241.276 25.6803C242.125 25.468 243.004 25.5088 243.871 25.3643C245.673 25.0641 247.419 24.7099 249.254 24.7099C250.727 24.7099 248.72 21.3106 248.441 20.4445C247.962 18.9524 247.585 17.3849 247.313 15.8857C247.109 14.7643 239.298 17.0963 238.184 18.2102" stroke="black" stroke-linecap="round" stroke-linejoin="round"/>
<path d="M243.262 20.6476C244.339 21.2177 245.24 21.9825 246.297 22.5772C246.465 22.6714 246.849 23.1305 247.031 22.9157C247.668 22.163 247.988 20.9234 248.441 20.0495C249.874 17.2899 251.493 14.4954 253.214 11.9137" stroke="black" stroke-linecap="round" stroke-linejoin="round"/>
<path d="M242.449 32.4282C242.706 34.0672 243.262 35.9821 243.262 37.6302C243.262 39.1316 243.735 40.1034 245.304 39.8418C246.975 39.5635 248.722 39.5372 250.416 39.5372C251.259 39.5372 251.992 39.4988 252.808 39.2889C253.737 39.05 253.335 38.8984 253.169 38.1154C252.765 36.2065 252.325 34.2613 251.68 32.4169C251.37 31.5319 251.22 29.8035 250.077 29.5959C248.578 29.3233 247.28 29.7554 245.835 30.3519C244.812 30.7738 243.745 31.1052 242.743 31.5706C241.763 32.0255 240.474 32.0525 239.606 32.6313" stroke="black" stroke-linecap="round" stroke-linejoin="round"/>
<path d="M245.518 34.8135C246.651 35.3911 247.453 36.246 248.443 37.0157C248.818 37.3075 249.28 37.5946 249.703 37.2346C250.229 36.7876 250.469 35.9599 250.89 35.4105C251.414 34.7278 251.946 34.0349 252.416 33.3144C253.128 32.2241 253.91 31.1965 254.83 30.2765" stroke="black" stroke-linecap="round" stroke-linejoin="round"/>
<path d="M87.2705 15.3142C88.2262 21.5794 90.7968 27.4717 91.3977 33.7812C91.5947 35.8497 92.7316 37.763 93.1446 39.8281C93.4515 41.3626 93.935 42.9571 95.6401 42.9571C98.5485 42.9571 101.336 42.01 104.202 41.6517C107.511 41.238 110.767 40.717 114.05 40.212C115.195 40.0359 116.313 39.5546 117.409 39.1562C118.681 38.6935 119.962 39.0904 121.21 38.7339C121.706 38.592 122.999 38.5952 123.341 38.254C124.296 37.2985 122.853 34.0683 122.515 33.1285C121.047 29.038 120.726 25.0654 119.904 20.8428C119.08 16.601 117.753 12.4512 117.063 8.17316C116.774 6.3777 117.264 4.12587 115.105 4.67941C109.929 6.00672 104.849 6.93123 99.5754 7.71245C95.8112 8.27011 92.3201 9.10317 88.7294 10.208C86.318 10.95 86.2339 12.0306 86.2339 14.6232C86.2339 15.7797 85.9285 17.4476 86.5794 18.4241" stroke="black" stroke-linecap="round" stroke-linejoin="round"/>
<path d="M95.9089 9.09459C97.0422 15.6426 97.9073 22.3749 100.554 28.4254C101.545 30.6897 101.634 33.5961 102.397 35.9696C103.044 37.9803 103.856 39.453 103.856 41.575" stroke="black" stroke-linecap="round" stroke-linejoin="round"/>
<path d="M100.401 13.5866C104.904 11.8063 109.829 12.2341 114.222 10.4767" stroke="black" stroke-linecap="round" stroke-linejoin="round"/>
<path d="M100.401 17.3875C102.366 17.0474 104.33 16.7398 106.275 16.3508" stroke="black" stroke-linecap="round" stroke-linejoin="round"/>
<path d="M110.767 15.3142C111.747 14.9316 113.137 14.2776 114.222 14.2776" stroke="black" stroke-linecap="round" stroke-linejoin="round"/>
<path d="M100.746 23.2616C104.152 22.7166 107.541 22.1676 110.921 21.5531C112.577 21.2519 114.634 20.8428 116.296 20.8428" stroke="black" stroke-linecap="round" stroke-linejoin="round"/>
<path d="M53.6233 18.9026C54.0565 19.5779 54.2762 20.4052 54.7134 21.0482C54.9264 21.3614 55.445 21.2385 55.7689 21.2385C56.5316 21.2385 57.3607 21.4648 57.3607 20.4772C57.3607 20.1209 57.6143 17.1976 57.2915 17.0685C56.7768 16.8626 55.6295 17.4305 55.0941 17.5357C54.6499 17.6229 54.1982 17.8006 53.779 17.9682" stroke="black" stroke-linecap="round" stroke-linejoin="round"/>
<path d="M55.492 25.4431C55.7499 26.3135 55.7197 28.0905 56.8243 28.0905C57.5564 28.0905 58.3361 28.2495 58.4422 27.2945C58.4863 26.8971 58.6971 24.9119 58.2951 24.6991C57.8 24.437 56.5375 25.0057 56.1149 25.2874" stroke="black" stroke-linecap="round" stroke-linejoin="round"/>
<path d="M61.8768 18.5911C63.9067 17.4981 66.0551 16.8781 68.3827 16.8781C69.0155 16.8781 69.5224 16.7404 70.1303 16.5667" stroke="black" stroke-linecap="round" stroke-linejoin="round"/>
<path d="M62.344 24.9759C64.2294 24.2046 66.1803 23.0556 68.2616 22.9515C69.7977 22.8747 71.0322 22.3757 72.4662 22.0171" stroke="black" stroke-linecap="round" stroke-linejoin="round"/>
<path d="M67.0158 12.985C67.0158 10.3647 67.1082 6.53797 69.2825 4.65361C70.1747 3.88036 71.4782 3.34513 72.5441 2.87141C74.236 2.11945 76.0506 1.69683 77.882 1.49582C80.3398 1.22606 83.0318 0.984296 85.4002 1.6948C86.2766 1.95774 87.11 2.29615 87.961 2.62916C88.6731 2.9078 89.23 3.45831 89.9076 3.79711" stroke="black" stroke-linecap="round" stroke-linejoin="round"/>
<path d="M85.3915 3.79712C86.9876 4.23474 88.6842 4.42002 90.3402 4.42002C91.3076 4.42002 90.6862 2.2475 90.6862 1.61694" stroke="black" stroke-linecap="round" stroke-linejoin="round"/>
<path d="M60.8787 112.501C60.8321 115.204 60.4143 118.072 59.819 120.713C59.2605 123.192 59.3246 126.259 59.2892 128.808C59.2608 130.855 59.2622 133.021 58.8182 135.019C58.6397 135.822 58.4649 137.266 59.4511 137.418C63.4843 138.038 67.8702 138.993 71.9465 138.993C73.3891 138.993 74.7532 139.258 76.1853 139.258C76.6491 139.258 79.2406 139.817 79.3938 139.626C80.5037 138.238 80.5267 134.736 80.8803 133.047C81.4816 130.174 81.6452 127.195 81.8222 124.275C81.9936 121.447 82.0724 118.655 82.0724 115.812C82.0724 114.412 82.584 112.534 80.7184 112.295C75.792 111.663 71.016 111.441 66.0594 111.441C65.2597 111.441 64.4601 111.441 63.6604 111.441C62.6613 111.441 62.0503 111.933 61.1436 112.236" stroke="black" stroke-linecap="round" stroke-linejoin="round"/>
<path d="M63.679 116.122C64.5324 116.122 65.3859 116.122 66.2394 116.122C67.0778 116.122 68.2143 115.904 68.9854 116.267C70.1462 116.815 71.3911 116.748 72.6469 116.931C73.3252 117.029 73.9441 116.978 74.6169 117.13C75.3127 117.287 76.1027 117.196 76.8124 117.196C77.6365 117.196 78.2807 117.394 79.081 117.554" stroke="black" stroke-linecap="round" stroke-linejoin="round"/>
<path d="M63.5596 118.868C64.3817 119.024 65.2396 119.345 66.0669 119.345" stroke="black" stroke-linecap="round" stroke-linejoin="round"/>
<path d="M67.619 119.345C68.5803 119.711 69.5867 119.703 70.6039 119.703" stroke="black" stroke-linecap="round" stroke-linejoin="round"/>
<path d="M71.9173 119.823C73.0287 120.273 74.257 120.539 75.446 120.539C76.2924 120.539 77.7454 120.286 78.484 120.778" stroke="black" stroke-linecap="round" stroke-linejoin="round"/>
<path d="M62.7238 121.614C65.0945 121.614 67.2612 122.808 69.6222 122.808C71.0282 122.808 72.5374 122.889 73.8276 123.405" stroke="black" stroke-linecap="round" stroke-linejoin="round"/>
<path d="M65.9475 127.942V125.196C67.1375 125.592 68.8204 125.315 70.0733 125.315C71.0574 125.315 72.0497 125.614 72.9653 125.885C73.7317 126.112 74.5356 125.899 75.3001 126.038C75.5915 126.091 75.4991 126.786 75.4991 126.986C75.4991 128.521 75.5644 130.066 75.3797 131.59C75.2578 132.595 74.9949 132.479 74.1327 132.479H72.3285C71.3551 132.479 70.471 132.331 69.5028 132.213C68.9575 132.147 68.3884 132.089 67.8578 131.941C67.5695 131.861 67.2401 131.945 66.969 131.822C66.6515 131.678 65.6497 131.694 65.4965 131.404C65.2833 131.001 65.7087 130.332 65.7087 129.912C65.7087 129.249 65.9475 128.61 65.9475 127.942Z" stroke="black" stroke-linecap="round" stroke-linejoin="round"/>
<path d="M62.0075 133.911C63.3938 134.435 65.0629 134.792 66.5445 134.867C67.3589 134.907 68.0941 135.27 68.8727 135.337C70.2337 135.456 71.501 135.702 72.8724 135.702" stroke="black" stroke-linecap="round" stroke-linejoin="round"/>
<path d="M63.082 111.226C63.2965 110.677 63.4029 109.14 64.276 109.528C64.5687 109.658 65.0006 109.555 65.324 109.648C65.7986 109.783 66.433 109.674 66.9292 109.674C69.8629 109.674 72.8074 109.794 75.7246 109.794C78.0356 109.794 80.5331 109.83 82.7756 110.391C83.2013 110.497 84.4992 111.127 84.5665 111.598C84.7043 112.562 84.5731 113.646 84.5731 114.622C84.5731 117.598 84.5731 120.575 84.5731 123.551C84.5731 124.222 84.5396 124.738 84.3609 125.381C84.2409 125.813 83.8863 126.347 83.8568 126.774C83.7727 127.994 83.4051 129.227 83.2532 130.442C83.1804 131.024 82.9016 131.531 82.9016 132.134C82.9016 132.787 82.8303 133.501 82.7756 134.157C82.7256 134.757 82.6655 136.056 82.3643 136.598C82.2403 136.821 82.0658 137.04 82.0658 137.314C82.0658 137.531 82.3428 138.009 82.0061 138.084C81.2313 138.256 80.8412 137.732 80.1555 137.732" stroke="black" stroke-linecap="round" stroke-linejoin="round"/>
<path d="M67.6387 102.061C67.9817 103.306 68.5563 104.391 69.1094 105.547C69.2962 105.938 69.7153 106.549 69.8189 105.772C69.9587 104.723 70.3021 103.127 70.909 102.216" stroke="black" stroke-linecap="round" stroke-linejoin="round"/>
<path d="M72.9334 102.684C73.0738 102.457 74.59 100.42 75.079 101.507C75.5228 102.493 74.49 103.774 73.8678 104.397C73.6821 104.582 72.2895 106.045 72.9334 106.386C73.4307 106.65 74.9485 106.504 75.425 106.265" stroke="black" stroke-linecap="round" stroke-linejoin="round"/>
<path d="M161.204 106.971C164.518 106.971 167.831 106.971 171.145 106.971C172.222 106.971 174.466 106.538 175.422 107.016C176.229 107.42 175.828 109.92 175.828 110.729C175.828 111.338 175.828 111.947 175.828 112.557C175.828 112.828 176.086 113.064 175.715 113.064C175.249 113.064 174.782 113.064 174.316 113.064C170.927 113.064 167.538 113.064 164.149 113.064C162.491 113.064 162.626 112.46 162.626 110.988C162.626 109.717 162.626 108.445 162.626 107.174" stroke="black" stroke-linecap="round" stroke-linejoin="round"/>
<path d="M163.015 116.144C162.78 117.241 162.741 118.36 162.741 119.485C162.741 119.936 163.14 120.257 163.29 120.67C163.365 120.878 163.522 120.904 163.717 120.904C164.358 120.904 164.999 120.904 165.639 120.904C169.176 120.904 172.671 120.996 176.197 120.996C176.716 120.996 176.563 120.136 176.563 119.801C176.563 119.18 176.715 118.359 176.431 117.792C176.179 117.288 176.226 116.481 176.1 115.915C176.014 115.527 172.733 115.778 172.378 115.778C170.325 115.778 168.272 115.778 166.219 115.778C165.67 115.778 165.121 115.778 164.571 115.778C164.128 115.778 163.438 115.63 163.107 115.961" stroke="black" stroke-linecap="round" stroke-linejoin="round"/>
<path d="M179.484 106.565C179.484 113.7 179.484 120.835 179.484 127.971C179.484 130.382 179.484 132.793 179.484 135.204C179.484 136.567 179.79 138.4 179.281 139.672" stroke="black" stroke-linecap="round" stroke-linejoin="round"/>
<path d="M181.79 107.083C181.671 107.845 181.72 108.63 181.72 109.399C181.72 109.965 181.622 110.624 181.724 111.185C181.795 111.574 181.894 111.926 182.297 111.926C183.133 111.926 183.969 111.926 184.804 111.926C187.406 111.926 190.01 112.253 192.56 111.789C192.84 111.738 193.514 111.97 193.371 111.567C193.039 110.64 192.949 109.383 192.949 108.401C192.949 107.685 193.001 106.662 192.092 106.662C190.787 106.662 189.498 106.7 188.208 106.522C187.029 106.359 185.803 106.452 184.613 106.452C183.969 106.452 183.336 106.587 182.707 106.666C182.421 106.702 181.879 106.72 181.65 106.873" stroke="black" stroke-linecap="round" stroke-linejoin="round"/>
<path d="M182.141 116.418C182.141 118.185 182.141 119.953 182.141 121.72C182.141 122.245 182.873 122.032 183.264 122.032C184.574 122.032 185.884 122.032 187.194 122.032C188.78 122.032 190.366 122.032 191.951 122.032C192.336 122.032 192.721 122.032 193.105 122.032C193.503 122.032 193.511 121.917 193.511 121.557C193.511 120.007 193.511 118.458 193.511 116.909C193.511 116.592 193.581 116.308 193.581 115.996C193.581 115.469 192.863 115.646 192.528 115.646C189.943 115.646 187.281 115.828 184.707 115.591C184.041 115.53 183.356 115.575 182.687 115.575C182.16 115.575 181.935 115.497 181.65 115.996" stroke="black" stroke-linecap="round" stroke-linejoin="round"/>
<path d="M182.282 124.489C183.287 124.599 184.346 124.423 185.338 124.594C186.073 124.721 186.885 124.629 187.631 124.629C188.795 124.629 189.955 124.699 191.125 124.699C191.73 124.699 192.336 124.699 192.942 124.699C193.088 124.699 193.56 124.619 193.636 124.769C193.791 125.081 193.721 125.62 193.721 125.959C193.721 126.398 193.706 126.841 193.721 127.28C193.731 127.552 193.792 127.82 193.792 128.103C193.792 128.665 193.734 128.692 193.098 128.7C191.112 128.724 189.125 128.7 187.14 128.7C186.106 128.7 185.063 128.663 184.052 128.856C183.529 128.955 183.161 128.91 182.633 128.91" stroke="black" stroke-linecap="round" stroke-linejoin="round"/>
<path d="M182.562 124.769C182.434 126.1 182.422 127.509 182.422 128.84" stroke="black" stroke-linecap="round" stroke-linejoin="round"/>
<path d="M196.425 139.591C196.425 135.179 195.957 130.779 195.957 126.354C195.957 123.084 195.957 119.813 195.957 116.543C195.957 113.273 195.957 110.003 195.957 106.732" stroke="black" stroke-linecap="round" stroke-linejoin="round"/>
<path d="M198.213 107.013C198.213 108.071 198.283 109.116 198.283 110.171C198.283 110.509 198.283 110.847 198.283 111.185C198.283 111.359 198.217 111.701 198.299 111.856C198.434 112.112 199.807 111.929 200.038 111.926C200.434 111.92 200.802 111.769 201.192 111.715C201.519 111.67 201.856 111.67 202.179 111.61C202.751 111.504 203.386 111.575 203.968 111.575C204.912 111.575 205.855 111.575 206.799 111.575C207.178 111.575 207.558 111.575 207.937 111.575C208.364 111.575 208.53 111.581 208.53 111.084C208.53 109.82 208.53 108.557 208.53 107.294C208.53 107.047 208.472 106.62 208.156 106.596C206.573 106.474 204.94 106.592 203.352 106.592C202.013 106.592 200.675 106.592 199.336 106.592" stroke="black" stroke-linecap="round" stroke-linejoin="round"/>
<path d="M198.424 106.662C198.915 106.662 199.406 106.662 199.898 106.662" stroke="black" stroke-linecap="round" stroke-linejoin="round"/>
<path d="M171.122 103.013C171.657 101.904 172.202 100.744 173.403 100.24C174.269 99.8775 175.203 99.6653 176.133 99.5424C177.212 99.4 178.607 99.399 179.658 99.7491C180.656 100.082 181.644 100.523 182.422 101.258C182.818 101.632 183.653 102.144 183.826 102.662" stroke="black" stroke-linecap="round" stroke-linejoin="round"/>
<path d="M182.001 102.872C182.245 102.952 184.365 103.649 184.387 103.223C184.407 102.85 184.366 102.454 184.492 102.1C184.56 101.911 184.424 101.345 184.598 101.258" stroke="black" stroke-linecap="round" stroke-linejoin="round"/>
<path d="M189.44 103.644C190.028 102.839 190.209 101.836 190.828 101.047C191.348 100.385 191.806 99.9846 192.56 99.5775C193.246 99.2065 193.898 99.2227 194.657 99.2227C195.299 99.2227 196.057 99.107 196.685 99.2383C197.236 99.3537 197.788 99.6966 198.213 100.049C198.827 100.559 199.499 101 200.065 101.566C200.677 102.178 201.32 102.751 201.933 103.364" stroke="black" stroke-linecap="round" stroke-linejoin="round"/>
<path d="M200.389 103.574C200.544 103.604 202.508 104.028 202.549 103.909C202.722 103.408 202.608 102.807 202.759 102.295C202.811 102.121 202.845 101.86 202.845 101.679" stroke="black" stroke-linecap="round" stroke-linejoin="round"/>
<path d="M21 64C21.1581 64.2246 21.3541 64.4245 21.5108 64.649C21.6395 64.8333 21.7462 65.0314 21.8628 65.2217C22.1393 65.6729 22.383 66.177 22.7365 66.5866C22.9803 66.8692 23.2129 67.1665 23.4389 67.4606C23.6673 67.7579 23.9542 68.0161 24.1926 68.306C24.2732 68.4039 25.039 69.2483 25.2423 68.9278C25.2856 68.8595 25.261 68.7443 25.261 68.6701C25.261 68.5218 25.2623 68.3727 25.2268 68.2269C25.1826 68.046 25.1133 67.8689 25.0508 67.6924C24.9472 67.4004 24.881 67.0589 24.8686 66.7543C24.8652 66.6714 24.8271 66.6625 24.9028 66.5962C24.987 66.5225 25.0981 66.4753 25.205 66.4298C25.367 66.3608 25.5768 66.3854 25.75 66.3753C25.9314 66.3647 26.1362 66.3555 26.3138 66.318C26.5342 66.2714 26.8604 66.1988 26.9586 65.9935C27.0672 65.7663 26.9453 65.6008 26.7888 65.4222C26.5532 65.1531 26.1152 65.1087 25.7718 64.979C25.1655 64.75 24.5698 64.5658 23.931 64.4172C23.2424 64.2571 22.5321 64.225 21.8316 64.1336C21.6777 64.1136 21.4849 64.1016 21.338 64.0614C21.2569 64.0392 21.1948 64.0065 21.1121 64.0245" stroke="black" stroke-linecap="round" stroke-linejoin="round"/>
<path d="M21.9744 62.5604C22.0583 62.151 22.0981 61.7395 22.0981 61.3227" stroke="black" stroke-linecap="round" stroke-linejoin="round"/>
<path d="M22.0981 59.755C22.0981 59.4937 22.0981 59.2324 22.0981 58.9711" stroke="black" stroke-linecap="round" stroke-linejoin="round"/>
<path d="M22.0156 56.8259C22.0156 56.5646 22.0156 56.3033 22.0156 56.042" stroke="black" stroke-linecap="round" stroke-linejoin="round"/>
<path d="M22.0156 54.5981C22.0156 54.323 22.0156 54.048 22.0156 53.773" stroke="black" stroke-linecap="round" stroke-linejoin="round"/>
<path d="M21.6031 52.7416C21.0585 52.6416 20.505 52.5766 19.9529 52.5766" stroke="black" stroke-linecap="round" stroke-linejoin="round"/>
<path d="M17.9313 52.4528C17.6563 52.4528 17.3813 52.4528 17.1062 52.4528" stroke="black" stroke-linecap="round" stroke-linejoin="round"/>
<path d="M15.3735 52.4941C14.9747 52.4941 14.5759 52.4941 14.1771 52.4941" stroke="black" stroke-linecap="round" stroke-linejoin="round"/>
<path d="M11.9081 52.4941C11.3167 52.4941 10.7254 52.4941 10.1341 52.4941" stroke="black" stroke-linecap="round" stroke-linejoin="round"/>
<path d="M8.07133 52.4941C7.83472 52.4973 7.60567 52.5353 7.37 52.5353" stroke="black" stroke-linecap="round" stroke-linejoin="round"/>
<path d="M5.22472 52.6178C4.67465 52.6178 4.12458 52.6178 3.57451 52.6178" stroke="black" stroke-linecap="round" stroke-linejoin="round"/>
<path d="M3.57451 53.6905C3.6221 53.9939 3.61576 54.2919 3.61576 54.5981" stroke="black" stroke-linecap="round" stroke-linejoin="round"/>
<path d="M21.0709 64.9733C20.72 64.9733 20.3691 64.9733 20.0182 64.9733" stroke="black" stroke-linecap="round" stroke-linejoin="round"/>
<path d="M18.404 65.1137C17.8931 65.1137 17.1398 65.2397 16.6494 65.0435" stroke="black" stroke-linecap="round" stroke-linejoin="round"/>
<path d="M14.6141 65.1137C14.2398 65.1137 13.8655 65.1137 13.4912 65.1137" stroke="black" stroke-linecap="round" stroke-linejoin="round"/>
<path d="M11.8068 65.1137C11.5494 65.1137 11.2921 65.1137 11.0347 65.1137" stroke="black" stroke-linecap="round" stroke-linejoin="round"/>
<path d="M9.63109 65.0435C9.35036 65.0435 9.06963 65.0435 8.78889 65.0435" stroke="black" stroke-linecap="round" stroke-linejoin="round"/>
<path d="M7.17468 65.0435C7.0577 65.0435 6.94073 65.0435 6.82376 65.0435" stroke="black" stroke-linecap="round" stroke-linejoin="round"/>
<path d="M5.63064 64.9032C5.26976 65.044 4.79301 65.1264 4.40243 65.0396C4.19541 64.9936 3.81373 64.807 4.15679 64.6926" stroke="black" stroke-linecap="round" stroke-linejoin="round"/>
<path d="M3.45497 56.3408C3.45497 56.6311 3.41724 56.9132 3.52515 57.183" stroke="black" stroke-linecap="round" stroke-linejoin="round"/>
<path d="M3.7357 58.0954C3.7357 58.3527 3.7357 58.6101 3.7357 58.8674" stroke="black" stroke-linecap="round" stroke-linejoin="round"/>
<path d="M3.7357 60.2711C3.80125 60.6935 3.94625 61.0429 3.94625 61.4642" stroke="black" stroke-linecap="round" stroke-linejoin="round"/>
<path d="M3.87607 62.7977C3.9182 63.0189 3.89156 63.3122 4.01643 63.4995" stroke="black" stroke-linecap="round" stroke-linejoin="round"/>
<path d="M1.44765 50.2356C1.44765 51.3425 1.26457 52.4325 1.26457 53.531C1.26457 54.7278 1.26457 55.9246 1.26457 57.1214C1.26457 60.3039 1.23578 63.4567 0.96961 66.6212C0.86596 67.8535 0.898412 69.0919 0.898412 70.3286C0.898412 70.8278 0.842413 71.4235 1.41714 71.6559C2.38352 72.0465 3.75911 71.839 4.78376 71.839C7.3634 71.839 9.87349 72.5713 12.4375 72.5713C12.8507 72.5713 13.8564 72.7534 14.2225 72.5204C14.8187 72.1411 14.8784 70.9144 14.904 70.2828C14.9261 69.7376 15.0871 69.2297 15.0871 68.6758C15.0871 68.0587 15.0871 67.4417 15.0871 66.8246C15.0871 64.85 15.0793 62.91 15.2752 60.9508C15.4624 59.0792 15.3812 57.1724 15.4736 55.2906C15.5366 54.0058 15.5448 52.7272 15.5448 51.4409C15.5448 51.008 15.6053 50.5351 15.5397 50.1085C15.4847 49.7513 14.4894 49.6864 14.2022 49.6864C13.2969 49.6864 12.4025 49.5948 11.4967 49.5948C9.60316 49.5948 7.70964 49.5948 5.81613 49.5948C5.0323 49.5948 4.28067 49.5907 3.51238 49.7067C2.99221 49.7852 1.97386 49.7627 1.53919 50.0525" stroke="black" stroke-linecap="round" stroke-linejoin="round"/>
<path d="M56.7376 31.7446C57.7391 31.369 58.8978 30.9108 59.9364 30.6512C61.2324 30.3272 62.5715 30.1169 63.8777 29.7816C66.2123 29.1821 68.5236 28.5356 70.8144 27.8084C71.6418 27.5457 72.454 27.2642 73.2961 27.0303C73.8102 26.8875 74.3837 26.7597 74.8625 26.5268C75.2654 26.3308 75.7159 26.177 76.0932 25.9369C76.2884 25.8126 76.7929 25.8699 76.8764 25.7029" stroke="black" stroke-linecap="round" stroke-linejoin="round"/>
<path d="M59.0261 33.85C59.175 34.7806 59.0531 35.9791 60.3077 36.0469C60.6617 36.0661 60.9911 36.1385 61.3553 36.1385C61.9508 36.1385 62.0173 35.3378 62.0419 34.9078C62.0826 34.1941 62.1654 33.0261 61.2129 33.0261C60.2585 33.0261 59.4739 33.0461 59.0261 33.9415" stroke="black" stroke-linecap="round" stroke-linejoin="round"/>
<path d="M64.6101 33.5754C65.4215 33.4094 66.0826 33.073 66.8172 32.7057C67.4371 32.3958 68.1537 32.2459 68.7497 31.9073C69.5463 31.4547 70.4872 31.2455 71.3281 30.8851C71.9703 30.6099 72.889 30.545 73.5809 30.4681C74.2635 30.3923 74.7831 30.0916 75.4117 29.8222" stroke="black" stroke-linecap="round" stroke-linejoin="round"/>
<path d="M61.1315 39.1593C61.1315 39.8293 61.0783 40.2216 61.4519 40.7612C61.5864 40.9555 61.7959 41.3462 62.0673 41.3562C62.4075 41.3688 62.867 41.4152 63.1861 41.3003C63.8711 41.0537 63.8183 40.231 63.9235 39.6628C64.0585 38.9337 63.9517 38.5185 63.1861 38.5185C62.5865 38.5185 62.2156 38.5329 61.7723 38.9762" stroke="black" stroke-linecap="round" stroke-linejoin="round"/>
<path d="M66.7155 38.7931C68.9217 37.8616 71.0288 36.9405 73.3673 36.3928C74.4505 36.139 75.5379 35.8377 76.6119 35.5486C77.1762 35.3966 77.7753 35.3645 78.341 35.2231" stroke="black" stroke-linecap="round" stroke-linejoin="round"/>
<path d="M230.803 70.7612C231.708 71.6234 232.231 71.3658 233.284 71.6898C233.777 71.8416 234.526 71.7699 234.922 71.4776C235.327 71.1793 236.152 70.3017 236.05 69.7397C235.996 69.4395 235.67 69.3829 235.407 69.3351C235.067 69.2734 235.106 69.0293 234.863 68.8774C234.468 68.6304 234.863 68.1704 234.863 67.7763C234.863 67.3249 234.317 66.7882 233.908 66.6421C233.381 66.454 233.056 66.5783 232.714 66.9406C232.353 67.3222 232.783 67.9003 232.707 68.3202C232.632 68.7337 231.97 69.4214 231.699 69.753C231.533 69.9555 231.267 70.2253 231.162 70.4627C230.823 71.2244 229.99 69.9965 229.755 69.7132C228.955 68.7486 228.979 68.1408 229.012 66.9406C229.039 65.9764 229.973 64.6724 230.929 64.4333C232.64 64.0056 235.17 63.5464 236.534 64.9108C237.58 65.9562 236.973 68.5047 236.176 69.5672" stroke="black" stroke-linecap="round" stroke-linejoin="round"/>
<path d="M240.833 73.5989C241.041 73.4008 241.803 72.9441 242.112 73.1388C242.269 73.2373 242.311 73.428 242.416 73.5638C242.619 73.8237 243.301 73.7444 243.582 73.7353C244.08 73.7193 244.553 73.5287 245.044 73.5287C245.197 73.5287 245.26 73.5474 245.38 73.6535C245.589 73.8391 246.051 73.7392 246.312 73.7392C246.8 73.7392 247.227 73.9498 247.711 73.9498" stroke="black" stroke-linecap="round" stroke-linejoin="round"/>
<path d="M262.731 73.5989C263.832 73.5989 264.936 73.583 266.037 73.5989C266.712 73.6086 267.321 73.9498 267.994 73.9498" stroke="black" stroke-linecap="round" stroke-linejoin="round"/>
<path d="M233.078 74.3678C233.078 77.8091 233.078 81.2503 233.078 84.6915C233.078 85.13 232.896 86.0691 233.098 86.4511C233.195 86.6337 233.66 86.5426 233.82 86.5426C234.414 86.5426 235.007 86.5426 235.6 86.5426C236.343 86.5426 237.415 86.3552 238.112 86.6342" stroke="black" stroke-linecap="round" stroke-linejoin="round"/>
<path d="M241.16 86.9782C241.126 87.2108 241.086 87.3875 240.982 87.5939C240.95 87.6583 240.907 87.714 240.873 87.7767C240.844 87.829 240.836 87.8912 240.807 87.9409C240.66 88.1895 241.654 88.275 241.755 88.2787C242.085 88.2909 242.413 88.2776 242.741 88.2384C242.918 88.2172 243.159 88.1608 243.241 87.9812C243.307 87.8392 243.318 87.5431 243.205 87.4245C243.095 87.3082 243.025 87.1857 242.953 87.0423C242.916 86.968 242.856 86.9073 242.942 86.8471C243.055 86.7676 243.184 86.7426 243.287 86.6436C243.391 86.5434 243.45 86.3466 243.484 86.2097C243.555 85.9295 243.618 85.5581 243.409 85.3245C243.185 85.0746 242.906 84.8708 242.593 84.7491C242.425 84.684 242.253 84.6604 242.074 84.6551C241.909 84.6503 241.726 84.6349 241.565 84.6768C241.363 84.7293 241.116 84.7847 241.03 84.9991C240.879 85.3764 241.007 85.9144 241.29 86.1973" stroke="black" stroke-linecap="round" stroke-linejoin="round"/>
<path d="M240.528 87.8335C240.275 87.6955 240.062 87.5947 239.859 87.3873C239.588 87.1113 239.412 86.6859 239.357 86.3089C239.298 85.909 239.286 85.5002 239.301 85.0962C239.309 84.8902 239.392 84.6444 239.469 84.4527C239.529 84.3033 239.603 84.1694 239.683 84.0302C239.785 83.8509 239.86 83.6882 240.022 83.5571C240.224 83.3931 240.547 83.3573 240.788 83.2782C241.057 83.1903 241.338 83.0365 241.625 83.0365C242.063 83.0365 242.479 83.0674 242.914 83.1295C243.185 83.1682 243.474 83.291 243.711 83.427C243.878 83.5223 244.071 83.6298 244.209 83.7616C244.61 84.1428 244.888 84.594 245.001 85.1375C245.063 85.4417 245.102 85.7847 245.102 86.0961C245.102 86.3938 245.077 86.6529 244.959 86.9307C244.804 87.2963 244.542 87.6291 244.242 87.8893C244.106 88.0079 243.91 88.0787 243.745 88.1496" stroke="black" stroke-linecap="round" stroke-linejoin="round"/>
<path d="M247.468 86.2456C247.748 85.7871 248.1 85.1843 248.38 85.9676C248.563 86.4803 248.907 86.5124 249.411 86.4519C249.765 86.4094 250.098 86.0973 250.44 86.0842C250.645 86.0763 250.824 86.138 251.032 86.138C251.381 86.138 251.709 86.0994 252.054 86.0423C252.29 86.0033 252.56 85.9023 252.745 86.0872C252.961 86.304 253.092 86.3382 253.36 86.4369C253.536 86.5015 253.788 86.6067 253.979 86.5565C254.311 86.4692 254.604 86.2013 254.948 86.2994" stroke="black" stroke-linecap="round" stroke-linejoin="round"/>
<path d="M256.562 85.9765C257.189 85.9765 257.791 86.0304 258.412 86.0304C258.619 86.0304 258.818 86.0132 259.013 86.0842C259.298 86.1876 259.629 86.0572 259.898 86.1918C260.26 86.3726 260.443 86.6676 260.891 86.7179C261.207 86.7535 261.5 86.6999 261.808 86.6731C262.119 86.646 262.599 86.4879 262.843 86.3054C263.05 86.1497 263.067 86.0842 263.342 86.0842" stroke="black" stroke-linecap="round" stroke-linejoin="round"/>
<path d="M247.63 89.2051C248.181 88.8274 248.827 89.1166 249.405 89.229C250.081 89.3604 250.536 88.7831 251.193 88.8284C251.394 88.8423 251.545 89.0372 251.719 89.1244C251.925 89.2275 252.143 89.2051 252.368 89.2051C252.641 89.2051 252.854 89.3106 253.118 89.2051" stroke="black" stroke-linecap="round" stroke-linejoin="round"/>
<path d="M232.875 86.3165C233.195 88.0365 233.04 89.8517 233.04 91.5972C233.04 92.3627 233.04 93.1282 233.04 93.8937C233.04 94.5986 233.123 95.3152 233.123 96.0138C233.123 96.2342 233.149 96.4685 233.166 96.6899C233.177 96.818 233.15 97.1934 233.247 97.2904C233.345 97.3888 233.641 97.2904 233.769 97.2904C234.194 97.2904 234.613 97.2492 235.039 97.2492C235.875 97.2492 236.711 97.2492 237.546 97.2492C237.674 97.2492 238.643 97.3484 238.734 97.1667" stroke="black" stroke-linecap="round" stroke-linejoin="round"/>
<path d="M240.859 98.4613C241.244 98.6102 241.68 98.622 242.086 98.6757C242.578 98.7409 243.109 98.7421 243.604 98.7073C243.845 98.6903 244.09 98.5845 244.314 98.4929C244.483 98.4238 244.568 98.2662 244.476 98.0818C244.398 97.926 244.202 97.7754 244.071 97.6635C243.935 97.5463 243.811 97.4144 243.674 97.298C243.551 97.1935 243.336 96.9927 243.326 96.8165C243.321 96.716 243.31 96.6144 243.397 96.5494C243.655 96.3559 243.9 96.078 243.973 95.7569C244.055 95.3954 244.029 94.9073 243.734 94.6534C243.444 94.4039 243.061 94.3102 242.694 94.2703C242.165 94.2129 241.212 94.1781 240.979 94.7922C240.856 95.1135 240.851 95.4004 241.067 95.6708C241.17 95.8008 241.292 95.9247 241.39 96.0574C241.474 96.1717 241.434 96.404 241.404 96.5319C241.337 96.8125 241.272 97.0929 241.191 97.3701C241.11 97.6512 241.009 97.9228 240.938 98.2065C240.922 98.2722 240.91 98.3693 240.822 98.3119C240.538 98.1269 240.298 97.7713 240.086 97.5106C239.554 96.8575 239.264 96.1735 239.169 95.3317C239.144 95.1106 239.151 94.8877 239.151 94.6657C239.151 94.5295 239.128 94.371 239.169 94.2387C239.242 93.9975 239.419 93.7657 239.594 93.5903C240.112 93.0725 240.677 92.7542 241.407 92.6976C241.959 92.6548 242.514 92.673 243.066 92.673C243.358 92.673 243.654 92.6565 243.945 92.68C244.138 92.6957 244.385 92.6972 244.567 92.7679C244.834 92.8716 245.122 93.1385 245.224 93.4145C245.353 93.7641 245.495 94.1852 245.511 94.5585C245.528 94.9612 245.585 95.3854 245.535 95.7886C245.483 96.2108 245.272 96.6075 245.177 97.0204C245.063 97.5119 244.759 97.8912 244.623 98.3664" stroke="black" stroke-linecap="round" stroke-linejoin="round"/>
<path d="M247.992 97.3208C248.126 97.1866 248.668 96.4234 248.916 96.5721C249.113 96.69 249.228 97.1102 249.482 97.1102C249.722 97.1102 249.876 96.9261 250.102 96.9036C250.425 96.8712 250.625 97.0431 250.909 97.1453C251.491 97.3549 251.827 97.04 252.371 97.04C252.788 97.04 253.438 97.6437 253.817 97.3909" stroke="black" stroke-linecap="round" stroke-linejoin="round"/>
<path d="M255.291 95.1451C255.291 95.5532 255.291 95.9613 255.291 96.3694C255.291 96.5466 255.178 96.5902 255.291 96.7593" stroke="black" stroke-linecap="round" stroke-linejoin="round"/>
<path d="M255.151 98.3033C255.138 97.8156 254.993 98.1513 255.221 98.3033" stroke="black" stroke-linecap="round" stroke-linejoin="round"/>
<path d="M240.635 68.2733C240.754 67.9873 240.902 67.7106 241.077 67.4542C241.111 67.4047 241.331 67.0109 241.334 67.1015C241.349 67.4776 241.481 67.6918 241.603 68.0282C241.693 68.2749 243.068 67.5693 243.265 67.5021C243.799 67.3196 243.514 67.822 243.836 67.8937C243.993 67.9286 244.17 67.7969 244.3 67.7323C244.664 67.5499 245.099 67.345 245.519 67.3586C245.787 67.3672 245.487 68.45 245.923 68.0402C246.094 67.8794 246.891 66.9571 247.145 67.532C247.202 67.6589 247.267 67.896 247.426 67.9385C247.636 67.9943 248.04 67.7096 248.254 67.6545C248.424 67.6109 248.753 67.4989 248.921 67.6067C249.047 67.6874 249.045 67.8319 249.112 67.9475C249.194 68.0872 249.641 67.5652 249.725 67.5051C249.965 67.3348 250.249 67.3086 250.5 67.4782C250.803 67.6839 250.862 67.8281 251.241 67.7861C251.582 67.7482 251.903 67.5528 252.242 67.535C252.515 67.5206 252.549 67.8181 252.634 68.0043C252.877 68.5349 253.03 67.7936 253.31 67.7173C253.463 67.6755 253.525 67.9981 253.579 68.082C253.665 68.2181 253.972 68.1887 254.099 68.1418C254.257 68.0832 254.394 68.0095 254.559 67.9624C254.769 67.9024 254.964 68.1375 255.142 68.2165C255.501 68.3759 255.873 68.2094 256.132 67.9505" stroke="black" stroke-linecap="round" stroke-linejoin="round"/>
<path d="M250.079 73.8162C250.414 73.5588 250.895 73.4861 251.314 73.4861C251.688 73.4861 251.968 73.8987 252.375 73.8987C252.764 73.8987 253.017 73.724 253.384 73.6282C253.688 73.549 253.656 73.9375 253.883 74.0133C254.421 74.1925 255.002 73.204 255.474 73.642C255.608 73.7666 255.821 73.8001 255.999 73.7726C256.1 73.7571 256.188 73.6813 256.285 73.6512C256.452 73.5997 256.629 73.6099 256.801 73.6099C256.971 73.6099 257.125 73.7596 257.28 73.7314C257.513 73.6891 257.702 73.4896 257.936 73.4472C258.19 73.401 258.318 73.6696 258.545 73.6924C258.69 73.7069 258.845 73.6924 258.99 73.6924C259.207 73.6924 259.369 73.6967 259.558 73.8162C259.687 73.8969 259.873 73.8574 260.021 73.8574" stroke="black" stroke-linecap="round" stroke-linejoin="round"/>
<path d="M240.796 77.1579C241.114 77.1284 241.409 77.0055 241.72 76.9424C241.8 76.9262 241.988 76.8761 242.075 76.9195C242.273 77.0181 242.085 77.1302 242.41 77.0662C242.701 77.009 243.243 76.8645 243.51 77.0754C243.669 77.2012 243.65 77.3995 243.9 77.3458C244.193 77.2826 244.567 77.0415 244.881 77.1899C245.362 77.418 245.804 76.9928 246.263 76.9928C246.43 76.9928 246.609 77.0341 246.785 77.0341C247.114 77.0341 247.444 77.03 247.773 77.0341C247.887 77.0355 247.919 77.0526 247.954 77.1624C248.04 77.4282 248.029 77.4343 248.27 77.3206C248.482 77.2211 248.899 77.0152 249.128 77.1579C249.387 77.3201 249.899 77.1359 250.184 77.0983C250.3 77.083 250.491 77.0362 250.583 77.1349C250.668 77.2258 250.679 77.2375 250.81 77.2197C251.085 77.1825 251.369 77.1991 251.647 77.1991" stroke="black" stroke-linecap="round" stroke-linejoin="round"/>
<path d="M253.503 77.3641C253.631 77.3024 254.209 76.9558 254.349 77.096C254.552 77.2991 255.124 77.2145 255.364 77.1579C255.416 77.1455 255.533 77.0497 255.557 77.1349C255.588 77.2478 255.542 77.34 255.699 77.3596C255.989 77.3958 256.275 77.2729 256.538 77.167C256.706 77.099 256.775 77.0474 256.907 77.1785C257.145 77.4171 257.691 77.2689 257.982 77.2266C258.208 77.1936 258.469 77.2816 258.699 77.2816C258.896 77.2816 259.087 77.1679 259.27 77.2312C259.477 77.3031 259.568 77.3732 259.691 77.1579" stroke="black" stroke-linecap="round" stroke-linejoin="round"/>
<path d="M191.441 119.658C193.187 120.054 194.8 121 196.58 121.336C198.533 121.705 200.272 121.994 202.264 121.994C204.556 121.994 206.634 121.945 208.865 121.457C211.17 120.953 213.688 120.264 215.856 119.312C217.27 118.69 218.57 117.767 219.939 117.045C221.723 116.104 223.069 114.526 224.654 113.299C226.706 111.711 228.178 109.562 229.439 107.355" stroke="black" stroke-linecap="round" stroke-linejoin="round"/>
<path d="M226.013 108.29C227.397 108.29 228.647 107.724 229.906 107.165C230.095 107.081 230.529 109.905 230.529 110.47" stroke="black" stroke-linecap="round" stroke-linejoin="round"/>
<path d="M248.041 100.379C248.041 100.685 247.836 101.778 248.319 101.778C248.711 101.778 249.103 101.778 249.494 101.778C249.759 101.778 250.067 101.864 250.086 101.509C250.104 101.166 250.307 100.145 249.835 99.9245C249.542 99.7877 249.002 99.8887 248.687 99.8946C248.495 99.8982 248.177 99.9202 248.041 100.056" stroke="black" stroke-linecap="round" stroke-linejoin="round"/>
<path d="M251.969 101.24C252.481 101.048 253.346 100.657 253.856 101.081C254.319 101.467 254.907 101.411 255.479 101.401C255.981 101.393 256.453 101.186 256.944 101.186C257.273 101.186 257.6 101.322 257.93 101.359C258.494 101.423 258.946 101.487 259.503 101.347" stroke="black" stroke-linecap="round" stroke-linejoin="round"/>
<path d="M248.095 104.146C248.095 104.636 247.947 105.574 248.215 106.029C248.3 106.173 249.084 106.029 249.237 106.029C249.469 106.029 249.781 106.094 249.976 105.948C250.203 105.778 250.086 105.193 250.086 104.953C250.086 104.661 250.06 104.344 249.898 104.092C249.594 103.619 248.694 103.766 248.257 103.984" stroke="black" stroke-linecap="round" stroke-linejoin="round"/>
<path d="M252.023 105.491C252.415 105.328 252.642 104.946 253.034 104.791C253.269 104.698 253.588 105.226 253.742 105.38C254.259 105.897 255.119 105.012 255.709 105.063C255.941 105.083 256.151 105.249 256.382 105.299C256.616 105.351 256.856 105.321 257.093 105.329C257.292 105.336 257.466 105.437 257.67 105.437C257.777 105.437 258.218 105.493 257.942 105.383" stroke="black" stroke-linecap="round" stroke-linejoin="round"/>
<path d="M259.664 105.545C260.056 105.454 260.436 105.317 260.83 105.237C260.898 105.223 261.005 105.205 261.075 105.234C261.236 105.299 261.278 105.539 261.464 105.545C262.135 105.564 262.77 105.814 263.431 105.814" stroke="black" stroke-linecap="round" stroke-linejoin="round"/>
</svg>

