<svg width="386" height="182" viewBox="0 0 386 182" fill="none" xmlns="http://www.w3.org/2000/svg">
<path d="M105.78 96.796H97.608V118H92.676V96.796H84.504V92.44H105.78V96.796ZM113.084 118.36C111.548 118.36 110.168 118.096 108.944 117.568C107.72 117.04 106.676 116.332 105.812 115.444C104.972 114.532 104.324 113.488 103.868 112.312C103.412 111.136 103.184 109.9 103.184 108.604C103.184 107.284 103.412 106.036 103.868 104.86C104.324 103.684 104.972 102.652 105.812 101.764C106.676 100.852 107.72 100.132 108.944 99.604C110.168 99.076 111.548 98.812 113.084 98.812C114.62 98.812 115.988 99.076 117.188 99.604C118.412 100.132 119.444 100.852 120.284 101.764C121.148 102.652 121.808 103.684 122.264 104.86C122.72 106.036 122.948 107.284 122.948 108.604C122.948 109.9 122.72 111.136 122.264 112.312C121.808 113.488 121.16 114.532 120.32 115.444C119.48 116.332 118.448 117.04 117.224 117.568C116 118.096 114.62 118.36 113.084 118.36ZM108.152 108.604C108.152 109.444 108.272 110.212 108.512 110.908C108.776 111.58 109.124 112.168 109.556 112.672C110.012 113.176 110.54 113.572 111.14 113.86C111.74 114.124 112.388 114.256 113.084 114.256C113.78 114.256 114.428 114.124 115.028 113.86C115.628 113.572 116.144 113.176 116.576 112.672C117.032 112.168 117.38 111.568 117.62 110.872C117.884 110.176 118.016 109.408 118.016 108.568C118.016 107.752 117.884 106.996 117.62 106.3C117.38 105.604 117.032 105.004 116.576 104.5C116.144 103.996 115.628 103.612 115.028 103.348C114.428 103.06 113.78 102.916 113.084 102.916C112.388 102.916 111.74 103.06 111.14 103.348C110.54 103.636 110.012 104.032 109.556 104.536C109.124 105.04 108.776 105.64 108.512 106.336C108.272 107.032 108.152 107.788 108.152 108.604ZM134.016 118.36C132.72 118.36 131.52 118.108 130.416 117.604C129.312 117.1 128.364 116.404 127.572 115.516C126.78 114.628 126.156 113.596 125.7 112.42C125.268 111.22 125.052 109.936 125.052 108.568C125.052 107.2 125.256 105.928 125.664 104.752C126.096 103.576 126.684 102.544 127.428 101.656C128.172 100.768 129.06 100.072 130.092 99.568C131.124 99.064 132.252 98.812 133.476 98.812C134.868 98.812 136.116 99.148 137.22 99.82C138.348 100.492 139.224 101.368 139.848 102.448V91.72H144.672V112.456C144.672 112.96 144.756 113.32 144.924 113.536C145.092 113.752 145.38 113.872 145.788 113.896V118C144.948 118.168 144.264 118.252 143.736 118.252C142.872 118.252 142.164 118.036 141.612 117.604C141.06 117.172 140.748 116.608 140.676 115.912L140.568 114.724C139.872 115.924 138.924 116.836 137.724 117.46C136.548 118.06 135.312 118.36 134.016 118.36ZM135.276 114.256C135.732 114.256 136.2 114.184 136.68 114.04C137.16 113.872 137.604 113.644 138.012 113.356C138.42 113.068 138.78 112.732 139.092 112.348C139.428 111.964 139.68 111.544 139.848 111.088V106.588C139.656 106.06 139.38 105.58 139.02 105.148C138.684 104.692 138.288 104.308 137.832 103.996C137.4 103.66 136.932 103.396 136.428 103.204C135.948 103.012 135.468 102.916 134.988 102.916C134.268 102.916 133.596 103.072 132.972 103.384C132.372 103.696 131.856 104.128 131.424 104.68C130.992 105.208 130.656 105.82 130.416 106.516C130.176 107.212 130.056 107.932 130.056 108.676C130.056 109.468 130.188 110.2 130.452 110.872C130.716 111.544 131.076 112.132 131.532 112.636C131.988 113.14 132.528 113.536 133.152 113.824C133.8 114.112 134.508 114.256 135.276 114.256ZM154.555 118.36C153.643 118.36 152.791 118.216 151.999 117.928C151.207 117.616 150.523 117.196 149.947 116.668C149.371 116.116 148.915 115.48 148.579 114.76C148.267 114.04 148.111 113.248 148.111 112.384C148.111 111.496 148.303 110.68 148.687 109.936C149.095 109.168 149.647 108.52 150.343 107.992C151.063 107.464 151.915 107.056 152.899 106.768C153.883 106.456 154.963 106.3 156.139 106.3C156.979 106.3 157.795 106.372 158.587 106.516C159.403 106.66 160.123 106.864 160.747 107.128V106.048C160.747 104.8 160.387 103.84 159.667 103.168C158.971 102.496 157.927 102.16 156.535 102.16C155.527 102.16 154.543 102.34 153.583 102.7C152.623 103.06 151.639 103.588 150.631 104.284L149.155 101.224C151.579 99.616 154.195 98.812 157.003 98.812C159.715 98.812 161.815 99.484 163.303 100.828C164.815 102.148 165.571 104.068 165.571 106.588V112.456C165.571 112.96 165.655 113.32 165.823 113.536C166.015 113.752 166.315 113.872 166.723 113.896V118C165.907 118.168 165.199 118.252 164.599 118.252C163.687 118.252 162.979 118.048 162.475 117.64C161.995 117.232 161.695 116.692 161.575 116.02L161.467 114.976C160.627 116.08 159.607 116.92 158.407 117.496C157.207 118.072 155.923 118.36 154.555 118.36ZM155.923 114.832C156.739 114.832 157.507 114.688 158.227 114.4C158.971 114.112 159.547 113.728 159.955 113.248C160.483 112.84 160.747 112.384 160.747 111.88V109.72C160.171 109.504 159.547 109.336 158.875 109.216C158.203 109.072 157.555 109 156.931 109C155.683 109 154.663 109.288 153.871 109.864C153.079 110.416 152.683 111.124 152.683 111.988C152.683 112.804 152.995 113.488 153.619 114.04C154.243 114.568 155.011 114.832 155.923 114.832ZM170.018 121.672C170.426 121.792 170.822 121.876 171.206 121.924C171.59 121.996 171.914 122.032 172.178 122.032C172.49 122.032 172.778 121.972 173.042 121.852C173.306 121.732 173.546 121.516 173.762 121.204C173.978 120.916 174.194 120.508 174.41 119.98C174.626 119.452 174.854 118.792 175.094 118L167.642 99.136H172.61L177.722 113.824L182.258 99.136H186.794L178.874 121.744C178.418 123.064 177.638 124.144 176.534 124.984C175.43 125.824 174.062 126.244 172.43 126.244C172.046 126.244 171.65 126.208 171.242 126.136C170.858 126.088 170.45 125.992 170.018 125.848V121.672ZM210.943 117.388C210.919 117.412 210.775 117.472 210.511 117.568C210.247 117.664 209.899 117.772 209.467 117.892C209.035 117.988 208.543 118.072 207.991 118.144C207.463 118.24 206.935 118.288 206.407 118.288C205.639 118.288 204.955 118.18 204.355 117.964C203.779 117.748 203.287 117.46 202.879 117.1C202.471 116.716 202.159 116.284 201.943 115.804C201.727 115.324 201.619 114.808 201.619 114.256V99.388C201.619 98.86 201.571 98.356 201.475 97.876C201.403 97.396 201.247 96.976 201.007 96.616C200.791 96.256 200.479 95.98 200.071 95.788C199.687 95.572 199.195 95.464 198.595 95.464C197.419 95.464 196.591 95.836 196.111 96.58C195.655 97.324 195.415 98.296 195.391 99.496V100.144H198.523V103.816H195.391V118H190.567V103.816H188.083V100.144H190.567V98.56C190.567 96.232 191.263 94.456 192.655 93.232C194.047 91.984 195.979 91.36 198.451 91.36C201.187 91.36 203.203 92.008 204.499 93.304C205.795 94.6 206.443 96.304 206.443 98.416V111.844C206.443 112.084 206.467 112.336 206.515 112.6C206.587 112.84 206.695 113.068 206.839 113.284C206.983 113.476 207.163 113.644 207.379 113.788C207.595 113.908 207.859 113.968 208.171 113.968C208.387 113.968 208.615 113.944 208.855 113.896C209.095 113.848 209.311 113.8 209.503 113.752C209.719 113.68 209.899 113.62 210.043 113.572C210.187 113.524 210.259 113.5 210.259 113.5L210.943 117.388ZM221.823 118.36C220.311 118.36 218.943 118.108 217.719 117.604C216.495 117.076 215.451 116.368 214.587 115.48C213.723 114.592 213.051 113.56 212.571 112.384C212.115 111.208 211.887 109.972 211.887 108.676C211.887 107.332 212.115 106.072 212.571 104.896C213.027 103.696 213.687 102.652 214.551 101.764C215.415 100.852 216.459 100.132 217.683 99.604C218.931 99.076 220.323 98.812 221.859 98.812C223.395 98.812 224.763 99.076 225.963 99.604C227.187 100.132 228.219 100.84 229.059 101.728C229.923 102.616 230.571 103.648 231.003 104.824C231.459 106 231.687 107.224 231.687 108.496C231.687 108.808 231.675 109.108 231.651 109.396C231.651 109.684 231.627 109.924 231.579 110.116H216.999C217.071 110.86 217.251 111.52 217.539 112.096C217.827 112.672 218.199 113.164 218.655 113.572C219.111 113.98 219.627 114.292 220.203 114.508C220.779 114.724 221.379 114.832 222.003 114.832C222.963 114.832 223.863 114.604 224.703 114.148C225.567 113.668 226.155 113.044 226.467 112.276L230.607 113.428C229.911 114.868 228.795 116.056 227.259 116.992C225.747 117.904 223.935 118.36 221.823 118.36ZM226.719 106.984C226.599 105.568 226.071 104.44 225.135 103.6C224.223 102.736 223.107 102.304 221.787 102.304C221.139 102.304 220.527 102.424 219.951 102.664C219.399 102.88 218.907 103.192 218.475 103.6C218.043 104.008 217.683 104.5 217.395 105.076C217.131 105.652 216.975 106.288 216.927 106.984H226.719ZM236.946 99.136L241.014 105.04L241.302 105.688L241.662 105.04L245.694 99.136H250.662L243.93 108.604L250.77 118H245.802L241.626 112.132L241.302 111.52L241.014 112.132L236.874 118H231.906L238.71 108.604L232.014 99.136H236.946Z" fill="black"/>
<path d="M240.643 75.6482C242.056 70.6244 243.468 65.0762 247.016 61.0589C250.688 56.9013 255.251 55.3596 260.454 53.745C262.207 53.2008 264.397 53.5339 266.232 53.5339C267.561 53.5339 269.571 53.124 270.704 53.8794" stroke="black" stroke-linecap="round" stroke-linejoin="round"/>
<path d="M265.521 48.6964C268.069 50.2128 270.927 51.6365 273.642 52.8428C274.377 53.1698 271.866 55.137 271.357 55.6455C270.266 56.7363 269.377 57.9708 268.286 59.0625" stroke="black" stroke-linecap="round" stroke-linejoin="round"/>
<path d="M277.996 49.804C278.709 51.0296 278.632 51.7489 278.854 53.0538C278.953 53.6363 279.215 54.0812 279.215 54.6787C279.215 55.4383 279.824 55.9902 279.824 56.7099C279.824 57.044 279.73 57.8167 280.276 57.6803C281.125 57.468 282.004 57.5088 282.871 57.3643C284.673 57.0641 286.419 56.7099 288.254 56.7099C289.727 56.7099 287.72 53.3106 287.441 52.4445C286.962 50.9524 286.585 49.3849 286.313 47.8857C286.109 46.7643 278.298 49.0963 277.184 50.2102" stroke="black" stroke-linecap="round" stroke-linejoin="round"/>
<path d="M282.262 52.6476C283.339 53.2177 284.24 53.9825 285.297 54.5772C285.465 54.6714 285.849 55.1305 286.031 54.9157C286.668 54.163 286.988 52.9234 287.441 52.0495C288.874 49.2899 290.493 46.4954 292.214 43.9137" stroke="black" stroke-linecap="round" stroke-linejoin="round"/>
<path d="M281.449 64.4282C281.706 66.0672 282.262 67.9821 282.262 69.6302C282.262 71.1316 282.735 72.1034 284.304 71.8418C285.975 71.5635 287.722 71.5372 289.416 71.5372C290.259 71.5372 290.992 71.4988 291.808 71.2889C292.737 71.05 292.335 70.8984 292.169 70.1154C291.765 68.2065 291.325 66.2613 290.68 64.4169C290.37 63.5319 290.22 61.8035 289.077 61.5959C287.578 61.3233 286.28 61.7554 284.835 62.3519C283.812 62.7738 282.745 63.1052 281.743 63.5706C280.763 64.0255 279.474 64.0525 278.606 64.6313" stroke="black" stroke-linecap="round" stroke-linejoin="round"/>
<path d="M284.518 66.8135C285.651 67.3911 286.453 68.246 287.443 69.0157C287.818 69.3075 288.28 69.5946 288.703 69.2346C289.229 68.7876 289.469 67.9599 289.89 67.4105C290.414 66.7278 290.946 66.0349 291.416 65.3144C292.128 64.2241 292.91 63.1965 293.83 62.2765" stroke="black" stroke-linecap="round" stroke-linejoin="round"/>
<path d="M130.946 42.2215C131.761 47.6108 133.955 52.6794 134.468 58.1069C134.636 59.8862 135.606 61.532 135.958 63.3084C136.22 64.6284 136.633 66 138.088 66C140.569 66 142.948 65.1853 145.394 64.8771C148.218 64.5213 150.996 64.0731 153.797 63.6387C154.774 63.4871 155.729 63.0731 156.664 62.7305C157.749 62.3325 158.842 62.6739 159.907 62.3672C160.331 62.2451 161.434 62.2479 161.725 61.9544C162.541 61.1325 161.309 58.3538 161.021 57.5454C159.768 54.0268 159.494 50.6095 158.793 46.9772C158.089 43.3284 156.958 39.7587 156.369 36.0788C156.122 34.5343 156.54 32.5973 154.698 33.0734C150.281 34.2152 145.946 35.0104 141.446 35.6824C138.234 36.1622 135.255 36.8787 132.191 37.8291C130.133 38.4674 130.061 39.3969 130.061 41.6271C130.061 42.6219 129.8 44.0567 130.356 44.8966" stroke="black" stroke-linecap="round" stroke-linejoin="round"/>
<path d="M138 37C138.998 42.6448 139.76 48.4484 142.092 53.6643C142.964 55.6162 143.043 58.1217 143.715 60.1679C144.284 61.9012 145 63.1707 145 65" stroke="black" stroke-linecap="round" stroke-linejoin="round"/>
<path d="M142 41C145.91 39.2826 150.186 39.6953 154 38" stroke="black" stroke-linecap="round" stroke-linejoin="round"/>
<path d="M142 44C143.672 43.6719 145.345 43.3752 147 43" stroke="black" stroke-linecap="round" stroke-linejoin="round"/>
<path d="M151 42C151.851 41.6309 153.057 41 154 41" stroke="black" stroke-linecap="round" stroke-linejoin="round"/>
<path d="M142 49C145.067 48.5494 148.118 48.0954 151.16 47.5873C152.652 47.3382 154.504 47 156 47" stroke="black" stroke-linecap="round" stroke-linejoin="round"/>
<path d="M102 45.3298C102.339 45.8078 102.511 46.3934 102.853 46.8485C103.02 47.0702 103.426 46.9832 103.68 46.9832C104.277 46.9832 104.926 47.1434 104.926 46.4443C104.926 46.1921 105.124 44.1229 104.872 44.0316C104.469 43.8858 103.571 44.2878 103.151 44.3622C102.804 44.424 102.45 44.5497 102.122 44.6684" stroke="black" stroke-linecap="round" stroke-linejoin="round"/>
<path d="M104 50.7017C104.169 51.4545 104.15 52.9914 104.875 52.9914C105.356 52.9914 105.868 53.129 105.938 52.303C105.967 51.9592 106.105 50.2423 105.841 50.0582C105.516 49.8315 104.687 50.3234 104.409 50.567" stroke="black" stroke-linecap="round" stroke-linejoin="round"/>
<path d="M109 45C110.722 43.9202 112.544 43.3077 114.518 43.3077C115.054 43.3077 115.484 43.1716 116 43" stroke="black" stroke-linecap="round" stroke-linejoin="round"/>
<path d="M109 50C110.676 49.4786 112.411 48.7019 114.262 48.6316C115.627 48.5797 116.725 48.2423 118 48" stroke="black" stroke-linecap="round" stroke-linejoin="round"/>
<path d="M113 40C113 37.7714 113.081 34.5167 114.98 32.914C115.76 32.2563 116.899 31.8011 117.83 31.3981C119.308 30.7586 120.894 30.3991 122.494 30.2282C124.641 29.9987 126.993 29.7931 129.062 30.3974C129.828 30.621 130.556 30.9089 131.299 31.1921C131.921 31.4291 132.408 31.8973 133 32.1855" stroke="black" stroke-linecap="round" stroke-linejoin="round"/>
<path d="M129 32.3333C130.453 32.8017 131.998 33 133.506 33C134.387 33 133.821 30.6749 133.821 30" stroke="black" stroke-linecap="round" stroke-linejoin="round"/>
<path d="M126.199 154.311C126.152 157.014 125.735 159.882 125.139 162.523C124.581 165.002 124.645 168.069 124.609 170.618C124.581 172.666 124.582 174.831 124.139 176.829C123.96 177.632 123.785 179.076 124.771 179.228C128.805 179.849 133.19 180.803 137.267 180.803C138.709 180.803 140.073 181.068 141.506 181.068C141.969 181.068 144.561 181.627 144.714 181.436C145.824 180.048 145.847 176.546 146.201 174.857C146.802 171.984 146.966 169.005 147.143 166.085C147.314 163.257 147.393 160.465 147.393 157.622C147.393 156.223 147.904 154.344 146.039 154.105C141.112 153.473 136.336 153.251 131.38 153.251C130.58 153.251 129.78 153.251 128.981 153.251C127.982 153.251 127.371 153.744 126.464 154.046" stroke="black" stroke-linecap="round" stroke-linejoin="round"/>
<path d="M128.999 157.932C129.853 157.932 130.706 157.932 131.56 157.932C132.398 157.932 133.535 157.714 134.306 158.078C135.466 158.625 136.711 158.558 137.967 158.741C138.645 158.84 139.264 158.788 139.937 158.94C140.633 159.097 141.423 159.006 142.133 159.006C142.957 159.006 143.601 159.204 144.401 159.364" stroke="black" stroke-linecap="round" stroke-linejoin="round"/>
<path d="M128.88 160.678C129.702 160.834 130.56 161.155 131.387 161.155" stroke="black" stroke-linecap="round" stroke-linejoin="round"/>
<path d="M132.939 161.155C133.901 161.522 134.907 161.514 135.924 161.514" stroke="black" stroke-linecap="round" stroke-linejoin="round"/>
<path d="M137.238 161.633C138.349 162.083 139.577 162.349 140.766 162.349C141.613 162.349 143.066 162.096 143.804 162.588" stroke="black" stroke-linecap="round" stroke-linejoin="round"/>
<path d="M128.044 163.424C130.415 163.424 132.582 164.618 134.943 164.618C136.349 164.618 137.858 164.699 139.148 165.215" stroke="black" stroke-linecap="round" stroke-linejoin="round"/>
<path d="M131.268 169.752V167.006C132.458 167.402 134.141 167.125 135.394 167.125C136.378 167.125 137.37 167.424 138.286 167.696C139.052 167.923 139.856 167.709 140.62 167.848C140.912 167.901 140.819 168.596 140.819 168.797C140.819 170.332 140.885 171.876 140.7 173.4C140.578 174.405 140.315 174.289 139.453 174.289H137.649C136.675 174.289 135.791 174.142 134.823 174.023C134.278 173.957 133.709 173.899 133.178 173.752C132.89 173.671 132.56 173.755 132.289 173.632C131.972 173.488 130.97 173.504 130.817 173.214C130.604 172.812 131.029 172.142 131.029 171.722C131.029 171.059 131.268 170.42 131.268 169.752Z" stroke="black" stroke-linecap="round" stroke-linejoin="round"/>
<path d="M127.328 175.722C128.714 176.245 130.383 176.603 131.865 176.677C132.679 176.717 133.414 177.08 134.193 177.148C135.554 177.266 136.821 177.512 138.193 177.512" stroke="black" stroke-linecap="round" stroke-linejoin="round"/>
<path d="M128.402 153.036C128.617 152.487 128.723 150.95 129.596 151.338C129.889 151.469 130.321 151.365 130.644 151.458C131.119 151.593 131.753 151.484 132.249 151.484C135.183 151.484 138.128 151.604 141.045 151.604C143.356 151.604 145.853 151.64 148.096 152.201C148.522 152.307 149.819 152.937 149.887 153.408C150.025 154.373 149.893 155.456 149.893 156.433C149.893 159.409 149.893 162.385 149.893 165.361C149.893 166.032 149.86 166.548 149.681 167.191C149.561 167.623 149.207 168.157 149.177 168.584C149.093 169.804 148.725 171.037 148.573 172.252C148.501 172.834 148.222 173.342 148.222 173.944C148.222 174.597 148.151 175.311 148.096 175.967C148.046 176.567 147.986 177.866 147.685 178.408C147.561 178.631 147.386 178.85 147.386 179.124C147.386 179.341 147.663 179.819 147.326 179.894C146.552 180.066 146.161 179.542 145.476 179.542" stroke="black" stroke-linecap="round" stroke-linejoin="round"/>
<path d="M132.959 143.871C133.302 145.116 133.877 146.201 134.43 147.357C134.617 147.748 135.036 148.359 135.139 147.582C135.279 146.533 135.622 144.937 136.229 144.027" stroke="black" stroke-linecap="round" stroke-linejoin="round"/>
<path d="M138.254 144.494C138.394 144.267 139.91 142.23 140.399 143.317C140.843 144.303 139.81 145.584 139.188 146.207C139.002 146.392 137.61 147.856 138.254 148.197C138.751 148.46 140.269 148.314 140.745 148.075" stroke="black" stroke-linecap="round" stroke-linejoin="round"/>
<path d="M200.204 138.971C203.518 138.971 206.831 138.971 210.145 138.971C211.222 138.971 213.466 138.538 214.422 139.016C215.229 139.42 214.828 141.92 214.828 142.729C214.828 143.338 214.828 143.947 214.828 144.557C214.828 144.828 215.086 145.064 214.715 145.064C214.249 145.064 213.782 145.064 213.316 145.064C209.927 145.064 206.538 145.064 203.149 145.064C201.491 145.064 201.626 144.46 201.626 142.988C201.626 141.717 201.626 140.445 201.626 139.174" stroke="black" stroke-linecap="round" stroke-linejoin="round"/>
<path d="M202.015 148.144C201.78 149.241 201.741 150.36 201.741 151.485C201.741 151.936 202.14 152.257 202.29 152.67C202.365 152.878 202.522 152.904 202.717 152.904C203.358 152.904 203.999 152.904 204.639 152.904C208.176 152.904 211.671 152.996 215.197 152.996C215.716 152.996 215.563 152.136 215.563 151.801C215.563 151.18 215.715 150.359 215.431 149.792C215.179 149.288 215.226 148.481 215.1 147.915C215.014 147.527 211.733 147.778 211.378 147.778C209.325 147.778 207.272 147.778 205.219 147.778C204.67 147.778 204.121 147.778 203.571 147.778C203.128 147.778 202.438 147.63 202.107 147.961" stroke="black" stroke-linecap="round" stroke-linejoin="round"/>
<path d="M218.484 138.565C218.484 145.7 218.484 152.835 218.484 159.971C218.484 162.382 218.484 164.793 218.484 167.204C218.484 168.567 218.79 170.4 218.281 171.672" stroke="black" stroke-linecap="round" stroke-linejoin="round"/>
<path d="M220.79 139.083C220.671 139.845 220.72 140.63 220.72 141.399C220.72 141.965 220.622 142.624 220.724 143.185C220.795 143.574 220.894 143.926 221.297 143.926C222.133 143.926 222.969 143.926 223.804 143.926C226.406 143.926 229.01 144.253 231.56 143.789C231.84 143.738 232.514 143.97 232.371 143.567C232.039 142.64 231.949 141.383 231.949 140.401C231.949 139.685 232.001 138.662 231.092 138.662C229.787 138.662 228.498 138.7 227.208 138.522C226.029 138.359 224.803 138.452 223.613 138.452C222.969 138.452 222.336 138.587 221.707 138.666C221.421 138.702 220.879 138.72 220.65 138.873" stroke="black" stroke-linecap="round" stroke-linejoin="round"/>
<path d="M221.141 148.418C221.141 150.185 221.141 151.953 221.141 153.72C221.141 154.245 221.873 154.032 222.264 154.032C223.574 154.032 224.884 154.032 226.194 154.032C227.78 154.032 229.366 154.032 230.951 154.032C231.336 154.032 231.721 154.032 232.105 154.032C232.503 154.032 232.511 153.917 232.511 153.557C232.511 152.007 232.511 150.458 232.511 148.909C232.511 148.592 232.581 148.308 232.581 147.996C232.581 147.469 231.863 147.646 231.528 147.646C228.943 147.646 226.281 147.828 223.707 147.591C223.041 147.53 222.356 147.575 221.687 147.575C221.16 147.575 220.935 147.497 220.65 147.996" stroke="black" stroke-linecap="round" stroke-linejoin="round"/>
<path d="M221.282 156.489C222.287 156.599 223.346 156.423 224.338 156.594C225.073 156.721 225.885 156.629 226.631 156.629C227.795 156.629 228.955 156.699 230.125 156.699C230.73 156.699 231.336 156.699 231.942 156.699C232.088 156.699 232.56 156.619 232.636 156.769C232.791 157.081 232.721 157.62 232.721 157.959C232.721 158.398 232.706 158.841 232.721 159.28C232.731 159.552 232.792 159.82 232.792 160.103C232.792 160.665 232.734 160.692 232.098 160.7C230.112 160.724 228.125 160.7 226.14 160.7C225.106 160.7 224.063 160.663 223.052 160.856C222.529 160.955 222.161 160.91 221.633 160.91" stroke="black" stroke-linecap="round" stroke-linejoin="round"/>
<path d="M221.562 156.769C221.434 158.1 221.422 159.509 221.422 160.84" stroke="black" stroke-linecap="round" stroke-linejoin="round"/>
<path d="M235.425 171.591C235.425 167.179 234.957 162.779 234.957 158.354C234.957 155.084 234.957 151.813 234.957 148.543C234.957 145.273 234.957 142.003 234.957 138.732" stroke="black" stroke-linecap="round" stroke-linejoin="round"/>
<path d="M237.213 139.013C237.213 140.071 237.283 141.116 237.283 142.171C237.283 142.509 237.283 142.847 237.283 143.185C237.283 143.359 237.217 143.701 237.299 143.856C237.434 144.112 238.807 143.929 239.038 143.926C239.434 143.92 239.802 143.769 240.192 143.715C240.519 143.67 240.856 143.67 241.179 143.61C241.751 143.504 242.386 143.575 242.968 143.575C243.912 143.575 244.855 143.575 245.799 143.575C246.178 143.575 246.558 143.575 246.937 143.575C247.364 143.575 247.53 143.581 247.53 143.084C247.53 141.82 247.53 140.557 247.53 139.294C247.53 139.047 247.472 138.62 247.156 138.596C245.573 138.474 243.94 138.592 242.352 138.592C241.013 138.592 239.675 138.592 238.336 138.592" stroke="black" stroke-linecap="round" stroke-linejoin="round"/>
<path d="M237.424 138.662C237.915 138.662 238.406 138.662 238.898 138.662" stroke="black" stroke-linecap="round" stroke-linejoin="round"/>
<path d="M210.122 135.013C210.657 133.904 211.202 132.744 212.403 132.24C213.269 131.877 214.203 131.665 215.133 131.542C216.212 131.4 217.607 131.399 218.658 131.749C219.656 132.082 220.644 132.523 221.422 133.258C221.818 133.632 222.653 134.144 222.826 134.662" stroke="black" stroke-linecap="round" stroke-linejoin="round"/>
<path d="M221.001 134.872C221.245 134.952 223.365 135.649 223.387 135.223C223.407 134.85 223.366 134.454 223.492 134.1C223.56 133.911 223.424 133.345 223.598 133.258" stroke="black" stroke-linecap="round" stroke-linejoin="round"/>
<path d="M228.44 135.644C229.028 134.839 229.209 133.836 229.828 133.047C230.348 132.385 230.806 131.985 231.56 131.578C232.246 131.207 232.898 131.223 233.657 131.223C234.299 131.223 235.057 131.107 235.685 131.238C236.236 131.354 236.788 131.697 237.213 132.049C237.827 132.559 238.499 133 239.065 133.566C239.677 134.178 240.32 134.751 240.933 135.364" stroke="black" stroke-linecap="round" stroke-linejoin="round"/>
<path d="M239.389 135.574C239.544 135.604 241.508 136.028 241.549 135.909C241.722 135.408 241.608 134.807 241.759 134.295C241.811 134.121 241.845 133.86 241.845 133.679" stroke="black" stroke-linecap="round" stroke-linejoin="round"/>
<path d="M21.1064 90.4052C21.2645 90.6298 21.4605 90.8297 21.6172 91.0542C21.7459 91.2385 21.8525 91.4366 21.9692 91.6269C22.2457 92.0781 22.4894 92.5822 22.8429 92.9918C23.0867 93.2744 23.3193 93.5717 23.5453 93.8658C23.7737 94.1631 24.0606 94.4213 24.299 94.7112C24.3796 94.8091 25.1454 95.6535 25.3487 95.333C25.392 95.2647 25.3674 95.1495 25.3674 95.0753C25.3674 94.927 25.3687 94.7779 25.3332 94.6321C25.289 94.4512 25.2197 94.2741 25.1572 94.0976C25.0536 93.8056 24.9874 93.4641 24.975 93.1595C24.9716 93.0766 24.9335 93.0677 25.0092 93.0014C25.0934 92.9277 25.2045 92.8805 25.3114 92.835C25.4734 92.766 25.6832 92.7906 25.8564 92.7805C26.0378 92.7699 26.2426 92.7608 26.4202 92.7232C26.6406 92.6766 26.9668 92.604 27.065 92.3987C27.1736 92.1715 27.0517 92.006 26.8952 91.8274C26.6596 91.5583 26.2216 91.5139 25.8782 91.3842C25.2719 91.1552 24.6762 90.971 24.0374 90.8224C23.3488 90.6623 22.6385 90.6302 21.938 90.5388C21.7841 90.5188 21.5913 90.5068 21.4444 90.4666C21.3633 90.4444 21.3012 90.4117 21.2185 90.4297" stroke="black" stroke-linecap="round" stroke-linejoin="round"/>
<path d="M22.0808 88.9656C22.1647 88.5562 22.2045 88.1447 22.2045 87.7279" stroke="black" stroke-linecap="round" stroke-linejoin="round"/>
<path d="M22.2045 86.1602C22.2045 85.8989 22.2045 85.6376 22.2045 85.3764" stroke="black" stroke-linecap="round" stroke-linejoin="round"/>
<path d="M22.122 83.2311C22.122 82.9698 22.122 82.7085 22.122 82.4472" stroke="black" stroke-linecap="round" stroke-linejoin="round"/>
<path d="M22.122 81.0033C22.122 80.7283 22.122 80.4532 22.122 80.1782" stroke="black" stroke-linecap="round" stroke-linejoin="round"/>
<path d="M21.7095 79.1468C21.1649 79.0468 20.6114 78.9818 20.0592 78.9818" stroke="black" stroke-linecap="round" stroke-linejoin="round"/>
<path d="M18.0377 78.858C17.7627 78.858 17.4877 78.858 17.2126 78.858" stroke="black" stroke-linecap="round" stroke-linejoin="round"/>
<path d="M15.4799 78.8993C15.0811 78.8993 14.6823 78.8993 14.2835 78.8993" stroke="black" stroke-linecap="round" stroke-linejoin="round"/>
<path d="M12.0145 78.8993C11.4231 78.8993 10.8318 78.8993 10.2405 78.8993" stroke="black" stroke-linecap="round" stroke-linejoin="round"/>
<path d="M8.17773 78.8993C7.94112 78.9025 7.71207 78.9405 7.47639 78.9405" stroke="black" stroke-linecap="round" stroke-linejoin="round"/>
<path d="M5.33112 79.023C4.78105 79.023 4.23098 79.023 3.68091 79.023" stroke="black" stroke-linecap="round" stroke-linejoin="round"/>
<path d="M3.68091 80.0957C3.7285 80.3991 3.72216 80.6971 3.72216 81.0033" stroke="black" stroke-linecap="round" stroke-linejoin="round"/>
<path d="M21.1773 91.3785C20.8264 91.3785 20.4755 91.3785 20.1246 91.3785" stroke="black" stroke-linecap="round" stroke-linejoin="round"/>
<path d="M18.5104 91.5189C17.9995 91.5189 17.2462 91.6449 16.7558 91.4487" stroke="black" stroke-linecap="round" stroke-linejoin="round"/>
<path d="M14.7205 91.5189C14.3462 91.5189 13.9719 91.5189 13.5976 91.5189" stroke="black" stroke-linecap="round" stroke-linejoin="round"/>
<path d="M11.9132 91.5189C11.6558 91.5189 11.3985 91.5189 11.1411 91.5189" stroke="black" stroke-linecap="round" stroke-linejoin="round"/>
<path d="M9.73749 91.4487C9.45676 91.4487 9.17603 91.4487 8.89529 91.4487" stroke="black" stroke-linecap="round" stroke-linejoin="round"/>
<path d="M7.28108 91.4487C7.1641 91.4487 7.04713 91.4487 6.93016 91.4487" stroke="black" stroke-linecap="round" stroke-linejoin="round"/>
<path d="M5.73704 91.3084C5.37616 91.4492 4.89941 91.5316 4.50883 91.4448C4.30181 91.3988 3.92013 91.2122 4.26319 91.0978" stroke="black" stroke-linecap="round" stroke-linejoin="round"/>
<path d="M3.56137 82.746C3.56137 83.0363 3.52364 83.3184 3.63155 83.5882" stroke="black" stroke-linecap="round" stroke-linejoin="round"/>
<path d="M3.8421 84.5006C3.8421 84.7579 3.8421 85.0153 3.8421 85.2726" stroke="black" stroke-linecap="round" stroke-linejoin="round"/>
<path d="M3.8421 86.6763C3.90765 87.0987 4.05265 87.4481 4.05265 87.8694" stroke="black" stroke-linecap="round" stroke-linejoin="round"/>
<path d="M3.98247 89.2029C4.0246 89.4241 3.99796 89.7174 4.12283 89.9047" stroke="black" stroke-linecap="round" stroke-linejoin="round"/>
<path d="M1.55405 76.6408C1.55405 77.7477 1.37097 78.8377 1.37097 79.9362C1.37097 81.133 1.37097 82.3298 1.37097 83.5266C1.37097 86.7091 1.34218 89.8619 1.07601 93.0264C0.97236 94.2587 1.00481 95.4971 1.00481 96.7338C1.00481 97.233 0.948813 97.8288 1.52354 98.0611C2.48992 98.4518 3.86551 98.2442 4.89016 98.2442C7.4698 98.2442 9.97989 98.9765 12.5439 98.9765C12.9571 98.9765 13.9628 99.1586 14.3289 98.9256C14.9251 98.5463 14.9848 97.3197 15.0104 96.688C15.0325 96.1428 15.1935 95.6349 15.1935 95.081C15.1935 94.4639 15.1935 93.8469 15.1935 93.2298C15.1935 91.2552 15.1857 89.3152 15.3816 87.356C15.5688 85.4844 15.4876 83.5776 15.58 81.6958C15.643 80.411 15.6512 79.1324 15.6512 77.8461C15.6512 77.4132 15.7117 76.9403 15.6461 76.5137C15.5911 76.1565 14.5958 76.0916 14.3086 76.0916C13.4033 76.0916 12.5089 76 11.6031 76C9.70956 76 7.81604 76 5.92253 76C5.1387 76 4.38707 75.9959 3.61878 76.1119C3.09861 76.1904 2.08026 76.1679 1.64559 76.4577" stroke="black" stroke-linecap="round" stroke-linejoin="round"/>
<path d="M105 56C105.845 55.6892 106.824 55.31 107.7 55.0951C108.794 54.827 109.925 54.653 111.027 54.3754C112.998 53.8794 114.949 53.3443 116.883 52.7424C117.581 52.5251 118.267 52.2921 118.978 52.0985C119.412 51.9803 119.896 51.8746 120.3 51.6818C120.64 51.5196 121.02 51.3923 121.339 51.1936C121.504 51.0908 121.93 51.1382 122 51" stroke="black" stroke-linecap="round" stroke-linejoin="round"/>
<path d="M107 57.7941C107.098 58.6912 107.018 59.8464 107.844 59.9118C108.077 59.9302 108.294 60 108.534 60C108.926 60 108.97 59.2283 108.986 58.8137C109.013 58.1258 109.067 57 108.44 57C107.811 57 107.295 57.0192 107 57.8824" stroke="black" stroke-linecap="round" stroke-linejoin="round"/>
<path d="M111 58C111.751 57.8231 112.363 57.4646 113.043 57.0732C113.617 56.7428 114.281 56.5831 114.832 56.2222C115.57 55.7398 116.441 55.5168 117.219 55.1328C117.814 54.8395 118.664 54.7703 119.305 54.6883C119.937 54.6075 120.418 54.2871 121 54" stroke="black" stroke-linecap="round" stroke-linejoin="round"/>
<path d="M108.003 62.4485C108.003 62.9174 107.947 63.1919 108.341 63.5696C108.483 63.7056 108.704 63.979 108.99 63.9861C109.349 63.9949 109.833 64.0273 110.17 63.9469C110.892 63.7743 110.837 63.1986 110.948 62.8008C111.09 62.2906 110.977 62 110.17 62C109.537 62 109.146 62.0101 108.679 62.3203" stroke="black" stroke-linecap="round" stroke-linejoin="round"/>
<path d="M113 62C114.898 61.2172 116.71 60.4432 118.722 59.9829C119.654 59.7697 120.589 59.5165 121.513 59.2735C121.998 59.1458 122.513 59.1189 123 59" stroke="black" stroke-linecap="round" stroke-linejoin="round"/>
<path d="M269.803 102.761C270.708 103.623 271.231 103.366 272.284 103.69C272.777 103.842 273.526 103.77 273.922 103.478C274.327 103.179 275.152 102.302 275.05 101.74C274.996 101.439 274.67 101.383 274.407 101.335C274.067 101.273 274.106 101.029 273.863 100.877C273.468 100.63 273.863 100.17 273.863 99.7763C273.863 99.3249 273.317 98.7882 272.908 98.6421C272.381 98.454 272.056 98.5783 271.714 98.9406C271.353 99.3222 271.783 99.9003 271.707 100.32C271.632 100.734 270.97 101.421 270.699 101.753C270.533 101.956 270.267 102.225 270.162 102.463C269.823 103.224 268.99 101.996 268.755 101.713C267.955 100.749 267.979 100.141 268.012 98.9406C268.039 97.9764 268.973 96.6724 269.929 96.4333C271.64 96.0056 274.17 95.5464 275.534 96.9108C276.58 97.9562 275.973 100.505 275.176 101.567" stroke="black" stroke-linecap="round" stroke-linejoin="round"/>
<path d="M279.833 105.599C280.041 105.401 280.803 104.944 281.112 105.139C281.269 105.237 281.311 105.428 281.416 105.564C281.619 105.824 282.301 105.744 282.582 105.735C283.08 105.719 283.553 105.529 284.044 105.529C284.197 105.529 284.26 105.547 284.38 105.653C284.589 105.839 285.051 105.739 285.312 105.739C285.8 105.739 286.227 105.95 286.711 105.95" stroke="black" stroke-linecap="round" stroke-linejoin="round"/>
<path d="M301.731 105.599C302.832 105.599 303.936 105.583 305.037 105.599C305.712 105.609 306.321 105.95 306.994 105.95" stroke="black" stroke-linecap="round" stroke-linejoin="round"/>
<path d="M272.078 106.368C272.078 109.809 272.078 113.25 272.078 116.691C272.078 117.13 271.896 118.069 272.098 118.451C272.195 118.634 272.66 118.543 272.82 118.543C273.414 118.543 274.007 118.543 274.6 118.543C275.343 118.543 276.415 118.355 277.112 118.634" stroke="black" stroke-linecap="round" stroke-linejoin="round"/>
<path d="M280.16 118.978C280.126 119.211 280.086 119.387 279.982 119.594C279.95 119.658 279.907 119.714 279.873 119.777C279.844 119.829 279.836 119.891 279.807 119.941C279.66 120.19 280.654 120.275 280.755 120.279C281.085 120.291 281.413 120.278 281.741 120.238C281.918 120.217 282.159 120.161 282.241 119.981C282.307 119.839 282.318 119.543 282.205 119.424C282.095 119.308 282.025 119.186 281.953 119.042C281.916 118.968 281.856 118.907 281.942 118.847C282.055 118.768 282.184 118.743 282.287 118.644C282.391 118.543 282.45 118.347 282.484 118.21C282.555 117.93 282.618 117.558 282.409 117.324C282.185 117.075 281.906 116.871 281.593 116.749C281.425 116.684 281.253 116.66 281.074 116.655C280.909 116.65 280.726 116.635 280.565 116.677C280.363 116.729 280.116 116.785 280.03 116.999C279.879 117.376 280.007 117.914 280.29 118.197" stroke="black" stroke-linecap="round" stroke-linejoin="round"/>
<path d="M279.528 119.834C279.275 119.695 279.062 119.595 278.859 119.387C278.588 119.111 278.412 118.686 278.357 118.309C278.298 117.909 278.286 117.5 278.301 117.096C278.309 116.89 278.392 116.644 278.469 116.453C278.529 116.303 278.603 116.169 278.683 116.03C278.785 115.851 278.86 115.688 279.022 115.557C279.224 115.393 279.547 115.357 279.788 115.278C280.057 115.19 280.338 115.037 280.625 115.037C281.063 115.037 281.479 115.067 281.914 115.129C282.185 115.168 282.474 115.291 282.711 115.427C282.878 115.522 283.071 115.63 283.209 115.762C283.61 116.143 283.888 116.594 284.001 117.138C284.063 117.442 284.102 117.785 284.102 118.096C284.102 118.394 284.077 118.653 283.959 118.931C283.804 119.296 283.542 119.629 283.242 119.889C283.106 120.008 282.91 120.079 282.745 120.15" stroke="black" stroke-linecap="round" stroke-linejoin="round"/>
<path d="M286.468 118.246C286.748 117.787 287.1 117.184 287.38 117.968C287.563 118.48 287.907 118.512 288.411 118.452C288.765 118.409 289.098 118.097 289.44 118.084C289.645 118.076 289.824 118.138 290.032 118.138C290.381 118.138 290.709 118.099 291.054 118.042C291.29 118.003 291.56 117.902 291.745 118.087C291.961 118.304 292.092 118.338 292.36 118.437C292.536 118.502 292.788 118.607 292.979 118.556C293.311 118.469 293.604 118.201 293.948 118.299" stroke="black" stroke-linecap="round" stroke-linejoin="round"/>
<path d="M295.562 117.977C296.189 117.977 296.791 118.03 297.412 118.03C297.619 118.03 297.818 118.013 298.013 118.084C298.298 118.188 298.629 118.057 298.898 118.192C299.26 118.373 299.443 118.668 299.891 118.718C300.207 118.753 300.5 118.7 300.808 118.673C301.119 118.646 301.599 118.488 301.843 118.305C302.05 118.15 302.067 118.084 302.342 118.084" stroke="black" stroke-linecap="round" stroke-linejoin="round"/>
<path d="M286.63 121.205C287.181 120.827 287.827 121.117 288.405 121.229C289.081 121.36 289.536 120.783 290.193 120.828C290.394 120.842 290.545 121.037 290.719 121.124C290.925 121.227 291.143 121.205 291.368 121.205C291.641 121.205 291.854 121.311 292.118 121.205" stroke="black" stroke-linecap="round" stroke-linejoin="round"/>
<path d="M271.875 118.317C272.195 120.036 272.04 121.852 272.04 123.597C272.04 124.363 272.04 125.128 272.04 125.894C272.04 126.599 272.123 127.315 272.123 128.014C272.123 128.234 272.149 128.469 272.166 128.69C272.177 128.818 272.15 129.193 272.247 129.29C272.345 129.389 272.641 129.29 272.769 129.29C273.194 129.29 273.613 129.249 274.039 129.249C274.875 129.249 275.711 129.249 276.546 129.249C276.674 129.249 277.643 129.348 277.734 129.167" stroke="black" stroke-linecap="round" stroke-linejoin="round"/>
<path d="M279.859 130.461C280.244 130.61 280.68 130.622 281.086 130.676C281.578 130.741 282.109 130.742 282.604 130.707C282.845 130.69 283.09 130.584 283.314 130.493C283.483 130.424 283.568 130.266 283.476 130.082C283.398 129.926 283.202 129.775 283.071 129.664C282.935 129.546 282.811 129.414 282.674 129.298C282.551 129.194 282.336 128.993 282.326 128.817C282.321 128.716 282.31 128.614 282.397 128.549C282.655 128.356 282.9 128.078 282.973 127.757C283.055 127.395 283.029 126.907 282.734 126.653C282.444 126.404 282.061 126.31 281.694 126.27C281.165 126.213 280.212 126.178 279.979 126.792C279.856 127.114 279.851 127.4 280.067 127.671C280.17 127.801 280.292 127.925 280.39 128.057C280.474 128.172 280.434 128.404 280.404 128.532C280.337 128.812 280.272 129.093 280.191 129.37C280.11 129.651 280.009 129.923 279.938 130.207C279.922 130.272 279.91 130.369 279.822 130.312C279.538 130.127 279.298 129.771 279.086 129.511C278.554 128.857 278.264 128.174 278.169 127.332C278.144 127.111 278.151 126.888 278.151 126.666C278.151 126.53 278.128 126.371 278.169 126.239C278.242 125.997 278.419 125.766 278.594 125.59C279.112 125.072 279.677 124.754 280.407 124.698C280.959 124.655 281.514 124.673 282.066 124.673C282.358 124.673 282.654 124.656 282.945 124.68C283.138 124.696 283.385 124.697 283.567 124.768C283.834 124.872 284.122 125.138 284.224 125.415C284.353 125.764 284.495 126.185 284.511 126.558C284.528 126.961 284.585 127.385 284.535 127.789C284.483 128.211 284.272 128.607 284.177 129.02C284.063 129.512 283.759 129.891 283.623 130.366" stroke="black" stroke-linecap="round" stroke-linejoin="round"/>
<path d="M286.992 129.321C287.126 129.187 287.668 128.423 287.916 128.572C288.113 128.69 288.228 129.11 288.482 129.11C288.722 129.11 288.876 128.926 289.102 128.904C289.425 128.871 289.625 129.043 289.909 129.145C290.491 129.355 290.827 129.04 291.371 129.04C291.788 129.04 292.438 129.644 292.817 129.391" stroke="black" stroke-linecap="round" stroke-linejoin="round"/>
<path d="M294.291 127.145C294.291 127.553 294.291 127.961 294.291 128.369C294.291 128.547 294.178 128.59 294.291 128.759" stroke="black" stroke-linecap="round" stroke-linejoin="round"/>
<path d="M294.151 130.303C294.138 129.816 293.993 130.151 294.221 130.303" stroke="black" stroke-linecap="round" stroke-linejoin="round"/>
<path d="M279.635 100.273C279.754 99.9873 279.902 99.7106 280.077 99.4542C280.111 99.4047 280.331 99.0109 280.334 99.1015C280.349 99.4776 280.481 99.6918 280.603 100.028C280.693 100.275 282.068 99.5693 282.265 99.5021C282.799 99.3196 282.514 99.822 282.836 99.8937C282.993 99.9286 283.17 99.7969 283.3 99.7323C283.664 99.5499 284.099 99.345 284.519 99.3586C284.787 99.3672 284.487 100.45 284.923 100.04C285.094 99.8794 285.891 98.9571 286.145 99.532C286.202 99.6589 286.267 99.896 286.426 99.9385C286.636 99.9943 287.04 99.7096 287.254 99.6545C287.424 99.6109 287.753 99.4989 287.921 99.6067C288.047 99.6874 288.045 99.8319 288.112 99.9475C288.194 100.087 288.641 99.5652 288.725 99.5051C288.965 99.3348 289.249 99.3086 289.5 99.4782C289.803 99.6839 289.862 99.8281 290.241 99.7861C290.582 99.7482 290.903 99.5528 291.242 99.535C291.515 99.5206 291.549 99.8181 291.634 100.004C291.877 100.535 292.03 99.7936 292.31 99.7173C292.463 99.6755 292.525 99.9981 292.579 100.082C292.665 100.218 292.972 100.189 293.099 100.142C293.257 100.083 293.394 100.01 293.559 99.9624C293.769 99.9024 293.964 100.138 294.142 100.217C294.501 100.376 294.873 100.209 295.132 99.9505" stroke="black" stroke-linecap="round" stroke-linejoin="round"/>
<path d="M289.079 105.816C289.414 105.559 289.895 105.486 290.314 105.486C290.688 105.486 290.968 105.899 291.375 105.899C291.764 105.899 292.017 105.724 292.384 105.628C292.688 105.549 292.656 105.937 292.883 106.013C293.421 106.193 294.002 105.204 294.474 105.642C294.608 105.767 294.821 105.8 294.999 105.773C295.1 105.757 295.188 105.681 295.285 105.651C295.452 105.6 295.629 105.61 295.801 105.61C295.971 105.61 296.125 105.76 296.28 105.731C296.513 105.689 296.702 105.49 296.936 105.447C297.19 105.401 297.318 105.67 297.545 105.692C297.69 105.707 297.845 105.692 297.99 105.692C298.207 105.692 298.369 105.697 298.558 105.816C298.687 105.897 298.873 105.857 299.021 105.857" stroke="black" stroke-linecap="round" stroke-linejoin="round"/>
<path d="M279.796 109.158C280.114 109.128 280.409 109.006 280.72 108.942C280.8 108.926 280.988 108.876 281.075 108.919C281.273 109.018 281.085 109.13 281.41 109.066C281.701 109.009 282.243 108.865 282.51 109.075C282.669 109.201 282.65 109.4 282.9 109.346C283.193 109.283 283.567 109.042 283.881 109.19C284.362 109.418 284.804 108.993 285.263 108.993C285.43 108.993 285.609 109.034 285.785 109.034C286.114 109.034 286.444 109.03 286.773 109.034C286.887 109.035 286.919 109.053 286.954 109.162C287.04 109.428 287.029 109.434 287.27 109.321C287.482 109.221 287.899 109.015 288.128 109.158C288.387 109.32 288.899 109.136 289.184 109.098C289.3 109.083 289.491 109.036 289.583 109.135C289.668 109.226 289.679 109.237 289.81 109.22C290.085 109.183 290.369 109.199 290.647 109.199" stroke="black" stroke-linecap="round" stroke-linejoin="round"/>
<path d="M292.503 109.364C292.631 109.302 293.209 108.956 293.349 109.096C293.552 109.299 294.124 109.215 294.364 109.158C294.416 109.146 294.533 109.05 294.557 109.135C294.588 109.248 294.542 109.34 294.699 109.36C294.989 109.396 295.275 109.273 295.538 109.167C295.706 109.099 295.775 109.047 295.907 109.178C296.145 109.417 296.691 109.269 296.982 109.227C297.208 109.194 297.469 109.282 297.699 109.282C297.896 109.282 298.087 109.168 298.27 109.231C298.477 109.303 298.568 109.373 298.691 109.158" stroke="black" stroke-linecap="round" stroke-linejoin="round"/>
<path d="M230.441 151.658C232.187 152.054 233.8 153 235.58 153.336C237.533 153.705 239.272 153.994 241.264 153.994C243.556 153.994 245.634 153.945 247.865 153.457C250.17 152.953 252.688 152.264 254.856 151.312C256.27 150.69 257.57 149.767 258.939 149.045C260.723 148.104 262.069 146.526 263.654 145.299C265.706 143.711 267.178 141.562 268.439 139.355" stroke="black" stroke-linecap="round" stroke-linejoin="round"/>
<path d="M265.013 140.29C266.397 140.29 267.647 139.724 268.906 139.165C269.095 139.081 269.529 141.905 269.529 142.47" stroke="black" stroke-linecap="round" stroke-linejoin="round"/>
<path d="M287.041 132.379C287.041 132.685 286.836 133.778 287.319 133.778C287.711 133.778 288.103 133.778 288.494 133.778C288.759 133.778 289.067 133.864 289.086 133.509C289.104 133.166 289.307 132.145 288.835 131.925C288.542 131.788 288.002 131.889 287.687 131.895C287.495 131.898 287.177 131.92 287.041 132.056" stroke="black" stroke-linecap="round" stroke-linejoin="round"/>
<path d="M290.969 133.24C291.481 133.048 292.346 132.657 292.856 133.081C293.319 133.467 293.907 133.411 294.479 133.401C294.981 133.393 295.453 133.186 295.944 133.186C296.273 133.186 296.6 133.322 296.93 133.359C297.494 133.423 297.946 133.487 298.503 133.347" stroke="black" stroke-linecap="round" stroke-linejoin="round"/>
<path d="M287.095 136.146C287.095 136.636 286.947 137.574 287.215 138.029C287.3 138.173 288.084 138.029 288.237 138.029C288.469 138.029 288.781 138.094 288.976 137.948C289.203 137.778 289.086 137.193 289.086 136.953C289.086 136.661 289.06 136.344 288.898 136.092C288.594 135.619 287.694 135.766 287.257 135.984" stroke="black" stroke-linecap="round" stroke-linejoin="round"/>
<path d="M291.023 137.491C291.415 137.328 291.642 136.946 292.034 136.791C292.269 136.698 292.588 137.226 292.742 137.38C293.259 137.897 294.119 137.012 294.709 137.063C294.941 137.083 295.151 137.249 295.382 137.299C295.616 137.351 295.856 137.321 296.093 137.329C296.292 137.336 296.466 137.437 296.67 137.437C296.777 137.437 297.218 137.493 296.942 137.383" stroke="black" stroke-linecap="round" stroke-linejoin="round"/>
<path d="M298.664 137.545C299.056 137.454 299.436 137.317 299.83 137.237C299.898 137.223 300.005 137.205 300.075 137.234C300.236 137.299 300.278 137.539 300.464 137.545C301.135 137.564 301.77 137.814 302.431 137.814" stroke="black" stroke-linecap="round" stroke-linejoin="round"/>
<path d="M210.672 24.6512C210.672 26.5683 210.668 28.4433 210.458 30.3384C210.363 31.1934 209.911 32.0776 210.266 32.8773C211.122 34.8032 214.443 34.3997 216.156 34.6489C218.155 34.9396 220.388 34.585 222.351 35.0213C223.514 35.2796 225.661 35.5638 226.109 33.9944C226.847 31.4095 226.921 28.9573 226.921 26.2761C226.921 25.7058 227.049 25.0238 226.696 24.5383C226.113 23.737 224.384 23.3623 223.491 23.1391C220.181 22.3115 216.893 22.4169 213.516 22.4169C211.788 22.4169 210.672 23.7652 210.672 25.4636" stroke="#464646" stroke-linecap="round" stroke-linejoin="round"/>
<path d="M210.469 33.3851C213.106 30.826 216.569 29.7009 219.858 28.2621C221.527 27.5318 223.05 26.6103 224.687 25.8247C225.399 25.483 226.347 24.6512 227.124 24.6512" stroke="#464646" stroke-linecap="round" stroke-linejoin="round"/>
<path d="M211.688 23.2294C213.556 25.0518 215.837 26.3627 217.668 28.1944C218.684 29.2096 220.35 30.4486 221.686 30.9928C222.748 31.4255 223.56 32.523 224.586 32.9788C225.27 33.2829 225.539 34.2237 226.109 34.6037" stroke="#464646" stroke-linecap="round" stroke-linejoin="round"/>
<path d="M209.657 37.0411C211.048 37.3127 212.695 36.9066 214.012 37.3458C214.5 37.5084 215.025 37.3334 215.502 37.4925C215.868 37.6146 216.178 37.9284 216.563 38.0567" stroke="#464646" stroke-linecap="round" stroke-linejoin="round"/>
<path d="M218.391 37.8536C219.129 38.1416 220.228 38.4629 221.031 38.4629" stroke="#464646" stroke-linecap="round" stroke-linejoin="round"/>
<path d="M222.656 38.2598C223.575 38.2822 224.182 38.3972 224.89 38.8691" stroke="#464646" stroke-linecap="round" stroke-linejoin="round"/>
<path d="M209.86 40.0878C210.85 40.0878 211.584 40.4941 212.5 40.4941" stroke="#464646" stroke-linecap="round" stroke-linejoin="round"/>
<path d="M214.938 40.9003C215.647 41.0161 216.454 41.3065 217.172 41.3065" stroke="#464646" stroke-linecap="round" stroke-linejoin="round"/>
<path d="M211.591 19.6167C211.951 19.3416 212.722 18.5838 213.239 18.986C213.569 19.2428 213.91 19.6167 214.358 19.6167C215.107 19.6167 215.89 19.2305 216.626 19.5251" stroke="#464646" stroke-linecap="round" stroke-linejoin="round"/>
<path d="M218.182 19.7082C218.561 19.7082 218.943 19.6944 219.321 19.7082C219.622 19.7191 219.883 19.8711 220.176 19.8913C220.478 19.9121 220.715 20.1233 221.015 20.1608C221.49 20.2202 222.005 20.1659 222.485 20.1659" stroke="#464646" stroke-linecap="round" stroke-linejoin="round"/>
<path d="M211.591 16.6874C212.237 16.311 212.374 17.038 212.964 17.0535C213.565 17.0693 214.04 16.9545 214.561 16.6416C215.268 16.2177 216.442 16.5958 217.226 16.5958C217.832 16.5958 218.318 17.0535 218.96 17.0535C219.317 17.0535 219.492 16.8241 219.779 16.6518C219.943 16.5532 220.193 16.5958 220.379 16.5958" stroke="#464646" stroke-linecap="round" stroke-linejoin="round"/>
<path d="M209.12 14.7651C209.302 16.0121 208.689 17.3435 208.479 18.5792C208.333 19.4345 208.144 20.4026 208.113 21.2644C208.063 22.6331 207.684 23.9968 207.477 25.3379C207.376 25.9932 207.345 26.6547 207.243 27.306C207.129 28.0402 207.216 28.8218 207.06 29.5385C206.902 30.2658 207.014 31.0994 207.014 31.8423C207.014 33.126 207.134 34.4716 206.923 35.7378C206.598 37.6887 206.339 39.6541 206.079 41.6065C206.025 42.0127 205.916 42.4626 205.916 42.8677C205.916 43.7731 206.976 43.5634 207.686 43.6458C208.65 43.758 209.627 43.6483 210.595 43.6967C211.912 43.7626 213.068 44.2098 214.338 44.4748C215.512 44.7201 216.755 44.8463 217.948 44.9935C219.218 45.1501 220.486 45.3886 221.757 45.5224C223.481 45.7038 225.255 45.9448 226.96 46.2547C227.353 46.3261 227.718 46.3463 228.119 46.3463C228.486 46.3463 228.506 45.8896 228.572 45.6089C228.748 44.8643 228.971 44.1364 229.075 43.3763C229.341 41.4404 229.151 39.4182 229.238 37.4669C229.349 35.0041 229.673 32.5367 230.103 30.103C230.744 26.4721 231.181 22.7508 231.181 19.0573C231.181 17.8331 231.455 16.4855 231.267 15.2685C231.219 14.954 230.609 14.9135 230.377 14.8566C229.345 14.603 228.247 14.4942 227.194 14.3531C225.903 14.1802 224.624 13.9412 223.319 13.9412C222.186 13.9412 221.054 13.9412 219.922 13.9412C217.101 13.9412 214.28 13.9412 211.459 13.9412C210.673 13.9412 209.548 13.7473 208.845 14.2158" stroke="#464646" stroke-linecap="round" stroke-linejoin="round"/>
<path d="M342.335 75.4758C342.335 80.7906 342.335 86.1055 342.335 91.4203C342.335 92.0647 342.272 92.6924 342.493 93.3047C342.708 93.9033 343.865 93.7062 344.355 93.7674C348.071 94.2319 351.81 94.5685 355.582 94.5685C358.976 94.5685 362.368 94.6968 365.738 94.7717C366.871 94.7968 368.041 94.6585 369.157 94.8732C369.803 94.9973 370.962 95.1725 371.583 94.8619C373.386 93.9605 373.411 90.3164 373.411 88.5767C373.411 86.2935 373.411 84.0104 373.411 81.7272C373.411 80.8283 373.411 79.9293 373.411 79.0303C373.411 78.0788 373.278 78.2533 372.599 77.7101C371.821 77.0878 370.185 77.376 369.248 77.2023C367.043 76.794 364.575 77.1007 362.342 77.1007C358.952 77.1007 355.482 77.0864 352.084 76.8976C351.176 76.8471 351.707 74.7009 351.43 74.2571C350.931 73.4585 348.481 73.6478 347.616 73.6478C346.228 73.6478 344.84 73.6478 343.452 73.6478C341.323 73.6478 342.521 74.6894 341.726 75.8821" stroke="#464646" stroke-linecap="round" stroke-linejoin="round"/>
<path d="M343.774 80.8392C345.775 80.8392 347.776 80.8392 349.777 80.8392C351.027 80.8392 352.281 80.8355 353.528 80.9229C354.243 80.9729 354.936 81.0502 355.654 81.0544C357.23 81.0636 358.77 81.4889 360.335 81.6463C361.62 81.7755 362.938 81.7001 364.228 81.7001C365.785 81.7001 367.342 81.7001 368.9 81.7001C369.726 81.7001 370.553 81.8616 371.378 81.8616" stroke="#464646" stroke-linecap="round" stroke-linejoin="round"/>
<path d="M361.047 79.3863C361.923 79.3863 362.754 79.6016 363.63 79.6016" stroke="#464646" stroke-linecap="round" stroke-linejoin="round"/>
<path d="M365.082 79.4401C365.872 79.4401 366.661 79.4401 367.45 79.4401" stroke="#464646" stroke-linecap="round" stroke-linejoin="round"/>
<path d="M368.742 79.4401C369.549 79.5534 370.457 79.5478 371.271 79.5478" stroke="#464646" stroke-linecap="round" stroke-linejoin="round"/>
<path d="M343.936 83.3144C344.099 84.5797 343.989 85.9099 343.989 87.1857C343.989 88.0526 344.022 88.8859 344.432 89.6639C344.573 89.9313 344.762 90.2908 345.089 90.3514C346 90.5201 346.992 90.6325 347.917 90.6325C348.816 90.6325 349.697 90.7939 350.596 90.7939C351.123 90.7939 351.643 90.8098 352.117 90.5487C352.633 90.265 352.779 89.8177 352.841 89.2603C352.929 88.4662 352.868 87.6411 352.868 86.8419C352.868 86.3204 353.029 85.8039 353.029 85.2814C353.029 84.8636 352.932 84.6699 352.629 84.3667C352.449 84.1871 351.923 84.1559 351.678 84.0946C350.372 83.7681 348.983 83.586 347.642 83.4758C346.877 83.4129 346.111 83.422 345.344 83.422C345.059 83.422 344.749 83.5585 344.474 83.6373" stroke="#464646" stroke-linecap="round" stroke-linejoin="round"/>
<path d="M344.904 88.1034C345.339 87.5721 345.978 86.5848 346.787 86.5848C347.036 86.5848 347.378 87.1467 347.595 87.2963C347.769 87.417 347.945 87.5328 348.133 87.6311C348.387 87.7646 348.577 87.936 348.859 87.9988C349.07 88.0457 349.166 88.0928 349.343 87.9151C349.651 87.6076 350.032 87.3565 350.39 87.1109C350.505 87.0315 350.632 86.9367 350.769 86.8987C350.959 86.8461 351.232 87.187 351.361 87.2963C351.707 87.5885 352.071 87.8054 352.437 88.0496" stroke="#464646" stroke-linecap="round" stroke-linejoin="round"/>
<path d="M345.711 84.9825C345.944 85.5304 346.135 84.9279 346.004 84.7971C345.799 84.5922 345.819 85.1858 345.819 85.2515" stroke="#464646" stroke-linecap="round" stroke-linejoin="round"/>
<path d="M354.59 84.8211C355.659 84.8211 356.728 84.8693 357.782 84.6716C357.936 84.6428 358.107 84.6568 358.258 84.6925C358.783 84.817 359.264 84.9655 359.812 84.9795C360.485 84.9967 361.165 84.9287 361.827 84.9287C362.214 84.9287 362.603 84.951 362.984 84.8749" stroke="#464646" stroke-linecap="round" stroke-linejoin="round"/>
<path d="M354.267 87.2963C355.153 87.1429 355.905 87.3139 356.793 87.4308C357.355 87.5047 357.952 87.4577 358.518 87.4577" stroke="#464646" stroke-linecap="round" stroke-linejoin="round"/>
<path d="M361.101 87.4577C362.133 87.6298 363.189 87.5653 364.234 87.5653C364.644 87.5653 365.008 87.6299 365.408 87.6699C365.693 87.6984 365.973 87.6009 366.212 87.7806" stroke="#464646" stroke-linecap="round" stroke-linejoin="round"/>
<path d="M358.249 89.6639C357.599 89.6248 356.925 89.5563 356.276 89.5563C355.863 89.5563 355.407 89.5044 354.996 89.5593C354.676 89.6019 354.697 90.2934 354.754 90.5517C354.853 90.9944 355.143 91.1733 355.57 91.2662C356.652 91.5013 357.818 91.4396 358.918 91.4396C359.479 91.4396 360.04 91.4396 360.601 91.4396C360.849 91.4396 361.111 91.3221 361.286 91.1466C361.669 90.7637 361.478 90.2943 361.077 89.9658C360.933 89.8481 360.673 89.8186 360.497 89.7835C360.19 89.722 359.851 89.6187 359.54 89.6101C358.894 89.5921 358.256 89.5025 357.603 89.5025" stroke="#464646" stroke-linecap="round" stroke-linejoin="round"/>
<path d="M343.666 75.3506C344.31 75.4732 344.88 75.5659 345.532 75.5659C345.866 75.5659 346.204 75.5153 346.536 75.4702C346.868 75.4252 347.218 75.4583 347.553 75.4583C347.883 75.4583 348.465 75.3391 348.725 75.5121" stroke="#464646" stroke-linecap="round" stroke-linejoin="round"/>
<path d="M368.634 75.2968C368.66 75.3161 368.951 75.5608 368.951 75.3805C368.951 75.3131 368.849 75.4028 368.849 75.4583" stroke="#464646" stroke-linecap="round" stroke-linejoin="round"/>
<path d="M370.248 75.4045C370.629 75.4695 370.478 75.2878 370.439 75.3267C370.341 75.4255 370.5 75.4519 370.571 75.4045" stroke="#464646" stroke-linecap="round" stroke-linejoin="round"/>
<path d="M371.916 75.6735C371.862 76.1047 372.145 75.7129 372.131 75.6735" stroke="#464646" stroke-linecap="round" stroke-linejoin="round"/>
<path d="M295.816 48.8277C295.137 48.0278 294.092 48.5132 294.065 49.5022C294.017 51.2844 294.851 52.4772 296.689 52.4772C297.16 52.4772 297.635 52.2675 297.695 51.7598C297.737 51.4112 297.812 50.7733 297.555 50.4965C297.343 50.2676 297.164 50.1631 296.853 50.1066C296.478 50.0384 296.294 50.3717 295.956 50.3717" stroke="black" stroke-linecap="round" stroke-linejoin="round"/>
<path d="M299.045 49.0383C299.532 48.9905 300.728 48.5947 300.475 47.8919C300.401 47.6852 300.22 47.6346 300.027 47.6346C299.102 47.6346 298.623 48.2837 298.623 49.124C298.623 50.0466 298.79 50.9348 299.871 51.058C300.565 51.137 301.543 51.0313 302.062 50.5121" stroke="black" stroke-linecap="round" stroke-linejoin="round"/>
<path d="M301.431 45.108C301.701 46.6454 302.227 47.9926 303.041 49.3151C303.231 49.624 303.843 50.1092 304.098 49.5997" stroke="black" stroke-linecap="round" stroke-linejoin="round"/>
<path d="M301.22 46.9328C301.777 46.5269 302.354 46.2964 302.975 46.0204" stroke="black" stroke-linecap="round" stroke-linejoin="round"/>
<path d="M307.256 45.6695C307.432 46.1875 307.728 46.639 307.923 47.1472C308.055 47.4929 308.309 47.8866 308.309 48.2662" stroke="black" stroke-linecap="round" stroke-linejoin="round"/>
<path d="M306.694 44.1956C306.872 43.9256 306.748 43.881 306.484 43.9188C306.31 43.9437 306.418 44.1172 306.484 43.9851" stroke="black" stroke-linecap="round" stroke-linejoin="round"/>
<path d="M308.87 42.792C308.88 43.3501 308.976 43.8451 309.116 44.3828C309.274 44.9904 309.356 45.6954 309.646 46.2582C309.774 46.5065 309.954 46.7734 310.133 46.9874C310.297 47.1816 310.569 47.261 310.765 47.424" stroke="black" stroke-linecap="round" stroke-linejoin="round"/>
<path d="M308.379 44.4062C308.719 44.2867 309.101 44.1757 309.361 43.9149" stroke="black" stroke-linecap="round" stroke-linejoin="round"/>
<path d="M315.257 43.6342C314.536 43.5211 314.151 43.4917 314.208 44.3399C314.254 45.0229 314.885 45.1872 315.475 45.0261C316.47 44.7549 316.105 43.0729 315.834 42.4566C315.4 41.4704 314.901 40.5413 314.134 39.7741" stroke="black" stroke-linecap="round" stroke-linejoin="round"/>
<path d="M317.011 41.7392C317.279 42.5097 317.615 43.1429 318.52 43.1429C319.178 43.1429 319.009 41.8422 318.696 41.5287C318.251 41.0838 317.944 41.0374 317.331 41.0374C316.464 41.0374 316.453 41.7246 316.31 42.441" stroke="black" stroke-linecap="round" stroke-linejoin="round"/>
<path d="M319.117 39.9846C319.588 40.463 320.117 40.9325 320.489 41.4975C320.553 41.5946 320.651 41.9176 320.661 41.8016C320.699 41.3429 320.606 40.8725 320.7 40.4174C320.782 40.018 320.869 39.7741 321.293 39.7741C321.868 39.7741 322.12 40.0672 322.447 40.5422C322.576 40.731 322.766 40.9353 322.766 41.1778" stroke="black" stroke-linecap="round" stroke-linejoin="round"/>
<path d="M323.258 39.0021C323.934 38.8292 324.325 37.809 323.398 37.809C322.66 37.809 322.689 38.8106 322.696 39.353C322.708 40.218 323.206 40.6865 324.03 40.6865C324.542 40.6865 324.829 40.4657 325.238 40.1796C325.527 39.9781 325.856 39.8431 326.135 39.6337" stroke="black" stroke-linecap="round" stroke-linejoin="round"/>
<path d="M209.345 27.8267C204.517 26.6198 200.626 22.591 198.911 18.0159" stroke="#464646" stroke-linecap="round" stroke-linejoin="round"/>
<path d="M196.886 18.0159C197.177 17.1433 197.122 15.9319 198.158 16.3981C198.85 16.7095 199.261 16.9258 200.001 16.9258" stroke="#464646" stroke-linecap="round" stroke-linejoin="round"/>
<path d="M190.354 11.2866C189.898 10.917 189.558 10.3942 189.164 11.073C188.917 11.4979 189.002 12.5792 189.078 13.0716C189.137 13.4537 189.704 13.8518 190.039 13.9412C190.64 14.1015 190.937 14.1447 191.453 13.7581" stroke="#464646" stroke-linecap="round" stroke-linejoin="round"/>
<path d="M190.171 8.6319C190.892 9.9177 191.656 11.1786 192.399 12.4511C192.729 13.0178 191.768 10.6976 192.388 10.483C192.665 10.3874 193.284 10.9451 193.456 11.0984C193.777 11.3833 194.33 11.5888 194.473 12.0189" stroke="#464646" stroke-linecap="round" stroke-linejoin="round"/>
<path d="M196.03 9.27267C195.272 8.84172 194.765 8.44711 194.524 9.51169C194.371 10.1907 194.441 11.195 195.318 11.195C196.209 11.195 196.396 10.4963 196.396 9.78122C196.396 9.50517 196.379 9.68426 196.508 9.82699C196.715 10.0572 197.075 10.3711 197.403 10.3711" stroke="#464646" stroke-linecap="round" stroke-linejoin="round"/>
<path d="M196.854 7.62495C197.268 8.03982 197.643 8.4842 198.044 8.90651C198.141 9.00887 198.293 9.34412 198.313 9.05907C198.347 8.58261 198.119 7.28741 198.684 7.00452C199.578 6.55774 199.702 8.20062 199.874 8.63189" stroke="#464646" stroke-linecap="round" stroke-linejoin="round"/>
<path d="M201.339 6.06879C200.59 5.63039 200.424 6.0024 200.424 6.78585C200.424 7.2491 200.48 7.52327 200.952 7.7165C201.98 8.13703 202.437 7.1715 202.437 6.25187C202.437 6.18484 202.372 5.91629 202.351 6.13998C202.316 6.50996 202.34 6.8841 202.498 7.2232C202.824 7.92148 203.162 8.56941 203.353 9.32353C203.468 9.77651 203.603 10.4404 203.144 10.7373C202.746 10.9951 201.886 11.407 201.43 11.1035" stroke="#464646" stroke-linecap="round" stroke-linejoin="round"/>
<path d="M203.902 5.70263C204.187 5.41809 204.966 4.41059 204.044 4.24308C203.484 4.1412 202.895 4.56422 202.895 5.15847C202.895 6.38574 204.346 7.23016 205.367 6.61802" stroke="#464646" stroke-linecap="round" stroke-linejoin="round"/>
<path d="M204.451 1.85795C204.446 1.63103 204.267 1.31427 204.543 1.23752C204.853 1.15148 205.229 1.06837 205.55 1.03918C206.122 0.987188 206.948 0.86889 207.009 1.63419C207.035 1.95419 207.04 2.31076 207.009 2.63096C206.985 2.88706 206.753 3.04894 206.74 3.32259C206.713 3.86133 207.136 3.97521 207.564 4.14645" stroke="#464646" stroke-linecap="round" stroke-linejoin="round"/>
<path d="M207.93 5.61109C208.557 5.46989 208.204 5.25196 208.204 5.61109" stroke="#464646" stroke-linecap="round" stroke-linejoin="round"/>
<path d="M345.925 70.4655C344.071 70.7804 341.905 71.3505 340.466 72.6457C338.385 74.5184 337.175 77.0366 336.859 79.8091C336.537 82.6259 336.657 85.0734 338.615 87.2926C339.846 88.6874 341.034 89.9928 342.638 90.9695C345.56 92.7491 348.813 93.6594 352.111 94.4734C356.552 95.5692 360.87 96.7298 365.443 97.0861C369.191 97.3782 372.435 97.3993 375.496 94.9319C377.286 93.4887 378.469 90.9276 379.182 88.7893C380.075 86.1103 380.673 82.7235 378.948 80.259C377.762 78.5643 376.075 77.3689 374.337 76.2966C372.79 75.3423 371.201 74.3566 369.518 73.6579C365.192 71.8615 360.6 70.4097 355.944 69.8426C353.559 69.5521 351.153 69.2276 348.746 69.2716C344.684 69.3458 340.134 69.6094 336.478 71.5556C334.576 72.5679 333.197 74.0589 333 76.2274" stroke="#464646" stroke-linecap="round" stroke-linejoin="round"/>
<path d="M376.292 68.2853C375.4 67.1426 375.39 66.4166 376.915 66.4166C378.06 66.4166 379.073 66.7546 379.095 68.0777C379.108 68.8284 379.161 69.4419 378.472 69.9118C377.896 70.305 377.298 70.6828 376.707 71.0538C375.997 71.4997 376.255 72.4526 376.759 72.9571" stroke="#464646" stroke-linecap="round" stroke-linejoin="round"/>
<path d="M376.292 75.293C377.778 75.7264 376.926 74.7462 376.846 74.7826C376.551 74.9166 376.733 75.501 376.915 75.1373" stroke="#464646" stroke-linecap="round" stroke-linejoin="round"/>
<path d="M380.808 74.6701C380.208 73.6206 379.88 73.1022 381.258 72.9225C382.136 72.808 383.203 72.4991 383.291 73.7358C383.412 75.4329 381.528 76.4802 382.988 77.9404" stroke="#464646" stroke-linecap="round" stroke-linejoin="round"/>
<path d="M382.988 79.8091C384.038 80.4978 383.495 79.2031 383.161 79.6707C382.809 80.1644 383.43 79.8605 383.3 80.1206" stroke="#464646" stroke-linecap="round" stroke-linejoin="round"/>
<path d="M383.118 66.8816C382.952 66.5381 382.925 66.2392 383.342 66.1002C383.586 66.0189 383.906 65.9586 384.159 66.0355C384.333 66.0886 384.46 66.2502 384.549 66.4019C384.858 66.9274 384.327 67.2912 384.002 67.6522C383.768 67.9126 383.482 68.2552 383.482 68.6276" stroke="#464646" stroke-linecap="round" stroke-linejoin="round"/>
<path d="M383.385 70.0584C383.421 70.1594 383.422 70.2039 383.525 70.2039C383.619 70.2039 383.626 70.1203 383.628 70.0396C383.63 69.9524 383.639 69.8507 383.517 69.8698C383.441 69.8817 383.409 69.9402 383.409 70.0099" stroke="#464646" stroke-linecap="round" stroke-linejoin="round"/>
<path d="M45.4037 29.0994C44.86 32.5659 44.7369 36.2618 45.8551 39.6162C46.3076 40.9738 46.6898 43.1143 48.4391 43.1143C49.9666 43.1143 51.3695 43.0093 52.8738 42.7532C55.1327 42.3687 57.7634 42.7081 60.0505 42.7081C63.3382 42.7081 66.3656 42.6152 69.4614 41.4894C70.9571 40.9455 70.7764 38.7993 70.793 37.4723C70.8126 35.9036 71.1161 33.8782 70.6914 32.3493C70.365 31.1743 70.1181 30.0088 69.7323 28.8512C69.5752 28.3802 69.518 27.9275 69.2696 27.4858C68.856 26.7505 67.4351 27.0683 66.7307 27.0683C62.1305 27.0683 57.5304 27.0683 52.9302 27.0683C50.4826 27.0683 47.8564 26.8499 46.0131 28.6932" stroke="#464646" stroke-linecap="round" stroke-linejoin="round"/>
<path d="M55.1302 31.386C54.5747 32.7512 54.9256 34.1608 54.9256 35.5658C54.9256 36.2378 55.2325 36.9267 55.2325 37.6033C55.2325 39.7558 59.2281 36.8381 59.9602 36.3554C60.4114 36.0579 61.6312 35.5426 61.8126 35.0137C61.8641 34.8637 61.3571 34.4408 61.2728 34.318C60.9987 33.9184 60.0884 33.6645 59.6477 33.429C58.9325 33.0468 58.2281 32.6291 57.5622 32.1811C57.028 31.8218 56.3005 31.386 55.6416 31.386" stroke="#464646" stroke-linecap="round" stroke-linejoin="round"/>
<path d="M49.2015 43.4722C49.0014 44.5479 49.2717 45.5681 49.2717 46.6305C49.2717 47.1333 49.4553 47.6197 49.4823 48.1043C49.4981 48.39 49.6029 48.4552 49.8332 48.4552C50.3185 48.4552 50.7976 48.2447 51.2719 48.2447C51.3697 48.2447 51.8894 48.3045 51.9231 48.2447C52.0574 48.0058 51.7983 47.7497 51.7983 48.1745" stroke="#464646" stroke-linecap="round" stroke-linejoin="round"/>
<path d="M53.9086 49.7517C54.0664 49.4083 54.2454 49.0842 54.4478 48.7662C54.4904 48.6992 54.5751 48.5457 54.5149 48.4729C54.3509 48.2747 54.104 48.1517 53.9457 47.9481C53.8165 47.782 53.8116 47.4164 53.8724 47.2241C53.9493 46.9805 54.138 46.778 54.3734 46.6838C54.6391 46.5776 55.0585 46.4561 55.3402 46.5578C55.4904 46.612 55.6683 46.7598 55.7637 46.8883C55.845 46.9977 55.8608 47.2048 55.8608 47.3387C55.8608 47.618 55.8012 47.8872 55.7689 48.162C55.7597 48.24 55.7354 48.3342 55.7513 48.414C55.777 48.5423 55.9594 48.716 56.0478 48.8045C56.2018 48.9585 56.3305 49.1347 56.4847 49.2889C56.5865 49.3907 56.7273 49.4654 56.8731 49.3984C57.0873 49.3 57.3003 49.2142 57.4371 49.0038C57.5707 48.7982 57.6668 48.5451 57.7377 48.3117C57.7989 48.1101 57.8705 47.9041 57.8978 47.694C57.9213 47.5129 57.9061 47.3227 57.9061 47.1404C57.9061 46.948 57.9178 46.7554 57.8658 46.5681C57.818 46.3961 57.7319 46.2438 57.6685 46.0785C57.618 45.9468 57.5638 45.8205 57.4887 45.7005C57.3203 45.431 57.125 45.1724 56.8452 45.0105C56.5378 44.8325 56.1877 44.7148 55.835 44.6675C55.3697 44.6051 54.9169 44.6014 54.4478 44.6014C54.2384 44.6014 54.0036 44.652 53.8115 44.7357C53.6967 44.7857 53.5848 44.8581 53.4892 44.9381C53.3493 45.0553 53.1967 45.1645 53.0677 45.2935C52.9177 45.4435 52.7927 45.6107 52.7372 45.8182C52.6819 46.025 52.6458 46.2488 52.6163 46.4607C52.5818 46.7094 52.5513 46.9485 52.5513 47.2003C52.5513 47.7824 52.6325 48.3826 52.8219 48.9336C52.908 49.1841 53.1445 49.4377 53.3549 49.5885C53.7104 49.8432 54.1567 49.9526 54.5676 50.0739C55.0257 50.2092 55.565 50.2038 56.0302 50.1008C56.3743 50.0246 56.7494 50.0232 57.0694 49.8632" stroke="#464646" stroke-linecap="round" stroke-linejoin="round"/>
<path d="M60.0799 47.3323C60.2112 46.8688 60.4603 45.5987 61.0508 46.5213C61.1278 46.6416 61.193 46.9736 61.3861 46.9736C61.7852 46.9736 62.1901 46.4401 62.5246 46.2562C62.6849 46.168 62.8039 46.2355 62.9496 46.3263C63.3471 46.5741 63.6626 46.8182 64.1349 46.8956C64.3493 46.9307 64.4582 47.0184 64.6262 46.8566C64.7742 46.7141 64.9159 46.5705 65.1175 46.5057C65.4482 46.3994 65.9487 46.4901 66.2911 46.4901C66.7009 46.4901 67.07 46.4199 67.4764 46.4199C67.8366 46.4199 68.1756 46.1705 68.4317 45.9286C68.572 45.7961 69.0594 45.8702 68.9932 46.069" stroke="#464646" stroke-linecap="round" stroke-linejoin="round"/>
<path d="M69.9055 44.525C69.9136 44.1966 69.9919 43.9092 70.3617 43.827C70.5622 43.7825 71.0276 43.7637 71.1844 43.9089C71.9069 44.5779 71.0285 45.2198 71.0285 45.9988" stroke="#464646" stroke-linecap="round" stroke-linejoin="round"/>
<path d="M71.0987 47.6832C71.4479 47.9266 71.3625 47.765 71.2546 48.0887C71.2212 48.189 71.3512 48.2726 71.239 48.1043" stroke="#464646" stroke-linecap="round" stroke-linejoin="round"/>
<path d="M53.4125 50.3502C53.4125 50.7077 53.39 51.0735 53.4164 51.4302C53.4311 51.628 53.5529 51.7615 53.5529 51.9644C53.5529 52.2916 53.6932 52.6055 53.6932 52.9314C53.6932 53.5052 53.9038 54.0769 53.9038 54.6313C53.9038 55.303 54.4276 55.263 54.9215 55.263C55.2605 55.263 55.5529 55.0691 55.8689 55.0524C56.142 55.0381 56.3837 55.068 56.6409 54.9823" stroke="#464646" stroke-linecap="round" stroke-linejoin="round"/>
<path d="M58.4081 56.3708C58.4575 56.0139 58.5376 55.6537 58.6498 55.311C58.6889 55.1914 58.7316 55.0672 58.7613 54.9453C58.7727 54.8985 58.8181 54.8134 58.7902 54.7635C58.7512 54.6937 58.6358 54.6352 58.5754 54.5817C58.4563 54.4763 58.3286 54.359 58.2366 54.2284C58.1094 54.048 58.0302 53.8541 57.9432 53.6521C57.8512 53.4382 57.8207 53.1614 57.9536 52.9621C58.0819 52.7695 58.2659 52.6279 58.4969 52.6005C58.7696 52.5682 59.1051 52.5299 59.3749 52.5964C59.5555 52.6409 59.8233 52.7491 59.9244 52.9145C60.0829 53.1738 60.0814 53.4364 60.0814 53.7295C60.0814 53.8745 60.0256 54.0175 60.0256 54.1592C60.0256 54.2077 60.031 54.2592 60.0163 54.3059C59.9948 54.3748 60.0314 54.3897 60.0618 54.4454C60.1703 54.6443 60.4089 54.7645 60.5659 54.9215C60.7015 55.0572 60.8372 55.1929 60.9729 55.3285C61.0598 55.4154 61.1208 55.5078 61.2146 55.5899C61.2364 55.6089 61.2853 55.6828 61.321 55.6591C61.451 55.5724 61.5017 55.3638 61.5503 55.2263C61.6801 54.8583 61.7721 54.4713 61.8147 54.0838C61.8544 53.7226 61.8804 53.3361 61.8436 52.9724C61.8258 52.7962 61.7388 52.6128 61.6701 52.4518C61.6063 52.3023 61.5566 52.171 61.4573 52.0386C61.2831 51.8063 61.1268 51.6634 60.8809 51.5139C60.5677 51.3234 60.2136 51.2044 59.8521 51.1461C59.494 51.0885 59.1253 51.0278 58.7634 51.0015C58.5705 50.9875 58.3742 50.9974 58.1808 50.9974C58.0247 50.9974 57.8638 50.9855 57.7098 51.016C57.3942 51.0784 57.0928 51.2216 56.8256 51.3982C56.5418 51.5857 56.389 51.8117 56.2244 52.1016C56.0872 52.3433 56.0653 52.6753 56.0653 52.9497C56.0653 53.2663 56.1015 53.5628 56.1862 53.869C56.2745 54.1883 56.3745 54.51 56.493 54.8193C56.6277 55.1711 56.791 55.5884 57.0415 55.876C57.4386 56.332 58.1285 56.5009 58.7159 56.5009C58.9438 56.5009 59.1717 56.5009 59.3997 56.5009C59.6285 56.5009 59.8624 56.5307 60.0773 56.441C60.4369 56.2908 60.8525 56.2015 61.0854 55.8688" stroke="#464646" stroke-linecap="round" stroke-linejoin="round"/>
<path d="M64.0794 53.8502C64.3977 53.7668 64.3314 53.5303 64.5493 53.346C64.6044 53.2994 64.9494 53.322 65.0421 53.2932C65.1776 53.2512 65.3006 53.2096 65.4454 53.2359C65.7407 53.2896 65.999 53.3139 66.3049 53.3139C66.5635 53.3139 66.8233 53.3198 67.0819 53.3139C67.29 53.3091 67.2934 53.2671 67.4945 53.3781C67.5969 53.4346 67.6811 53.4376 67.7924 53.4376" stroke="#464646" stroke-linecap="round" stroke-linejoin="round"/>
<path d="M69.0301 53.1901C69.2501 53.0785 69.3697 52.9807 69.5985 53.0205C69.8897 53.0711 70.1865 52.9856 70.4717 52.9449C70.753 52.9047 71.0251 52.9013 71.3083 52.9013C71.7382 52.9013 72.1496 52.8449 72.5757 52.8165C72.7838 52.8026 73.1166 52.7758 73.2794 52.6538" stroke="#464646" stroke-linecap="round" stroke-linejoin="round"/>
<path d="M63.8732 55.7067C64.2087 55.3868 64.3794 55.5004 64.7991 55.5004C65.0405 55.5004 65.282 55.5004 65.5234 55.5004" stroke="#464646" stroke-linecap="round" stroke-linejoin="round"/>
<path d="M66.8848 55.4179C67.0794 55.3726 67.2625 55.2529 67.4647 55.2529C67.6457 55.2529 67.8268 55.2529 68.0079 55.2529C68.3914 55.2529 68.7665 55.2116 69.1538 55.2116C69.518 55.2116 69.81 55.1494 70.1394 54.9847C70.3718 54.8685 70.6693 54.9228 70.9278 54.9228" stroke="#464646" stroke-linecap="round" stroke-linejoin="round"/>
<path d="M47.2478 128.914C47.5579 128.739 48.5465 127.861 48.9617 128.019C49.5313 128.236 49.7391 128.93 50.2687 129.168C50.4922 129.269 50.7104 129.089 50.8688 128.96C51.2061 128.684 51.6782 128.731 52.0842 128.731C52.4982 128.731 52.9113 128.731 53.3352 128.731C53.525 128.731 53.7229 128.746 53.9099 128.711C54.4002 128.617 54.3971 128.825 54.6626 129.28" stroke="#707070" stroke-linecap="round" stroke-linejoin="round"/>
<path d="M46.1031 138.979C46.4604 138.427 47.1568 138.132 47.7891 138.035C48.1836 137.974 48.2164 138.268 47.9057 138.465C47.6678 138.616 46.8766 138.86 47.1583 138.86C47.7524 138.86 48.4134 138.662 48.9968 138.561C49.2898 138.51 49.5818 138.466 49.8787 138.447C49.9911 138.44 50.1073 138.422 49.9594 138.489C49.6084 138.647 49.2634 138.87 48.8982 138.991C48.8193 139.018 49.0475 138.915 49.1283 138.896C49.6175 138.779 50.1412 138.731 50.641 138.692C51.0082 138.664 51.4292 138.613 51.7979 138.668C52.0125 138.701 51.4188 138.906 51.3853 138.917C51.3521 138.927 50.7101 139.118 50.9967 139.048C51.1849 139.002 51.3602 138.919 51.5438 138.86C52.1024 138.679 52.688 138.612 53.2716 138.573C53.8045 138.537 55.3913 138.449 54.874 138.582C54.5214 138.672 54.1514 138.742 53.8217 138.902C53.738 138.942 53.9962 138.837 54.0848 138.809C54.5064 138.674 54.9402 138.588 55.3762 138.513C56.4369 138.331 57.5198 138.172 58.5988 138.172C58.6954 138.172 58.1516 138.578 58.0726 138.633C58.0018 138.682 57.7891 138.8 57.8753 138.8C58.1647 138.8 58.5132 138.63 58.7961 138.579C59.5973 138.434 60.4585 138.347 61.2743 138.39C61.5664 138.406 60.742 138.648 60.5179 138.836C60.4068 138.929 60.5767 138.873 60.6166 138.866C60.9304 138.805 61.2481 138.762 61.5642 138.716C62.8244 138.533 64.0631 138.495 65.3339 138.495C65.7893 138.495 64.9397 138.741 64.8287 138.794C64.7654 138.824 63.8746 139.28 64.2308 139.075C64.6755 138.819 65.2193 138.719 65.7195 138.636C66.0088 138.587 66.1196 138.637 65.9228 138.926C65.8664 139.008 65.5103 139.311 65.8211 139.266C66.1397 139.221 66.3975 138.995 66.7 138.911C66.8267 138.875 66.4072 139.34 66.3592 139.386C66.1024 139.633 66.6265 139.115 66.718 139.048C66.8181 138.975 66.9855 138.883 66.7718 139.042C66.5993 139.17 66.2974 139.386 66.0663 139.386C65.6403 139.386 65.9968 138.497 65.9108 139.099C65.9025 139.157 65.7272 139.619 65.8092 139.667C65.8617 139.698 66.2296 139.377 66.2994 139.335C66.4852 139.224 66.3553 139.538 66.3323 139.589C66.201 139.882 66.0382 140.159 65.9048 140.45C65.8978 140.465 65.6985 140.878 65.8451 140.623C66.0279 140.306 66.3358 140.069 66.6402 139.876C66.9835 139.659 66.5107 140.27 66.4639 140.331C66.3741 140.446 65.761 141.23 66.1739 140.725C66.2796 140.596 66.5449 140.219 66.7359 140.202C66.8492 140.192 66.2237 141.168 66.1829 141.227C66.054 141.415 65.9212 141.674 65.7494 141.831C65.6807 141.894 65.816 141.321 65.8211 141.305C65.9411 140.926 66.0951 140.447 66.3323 140.121C66.4991 139.892 66.4999 140.203 66.4609 140.337C66.3556 140.697 66.0753 140.982 65.8869 141.299C65.8471 141.366 65.8136 141.45 65.9288 141.371C66.1648 141.209 66.3603 140.96 66.5356 140.737C66.5633 140.702 66.9635 140.055 66.8375 140.372C66.6195 140.921 66.2172 141.408 65.8451 141.858C65.5066 142.267 65.9988 141.812 66.1619 141.721C66.259 141.666 67.2749 141.174 67.1903 140.994C67.0513 140.699 66.2522 142.333 66.712 141.377C66.762 141.273 67.0761 140.69 66.9332 140.594C66.6363 140.393 66.1842 140.76 65.9676 140.913C65.7502 141.068 65.4031 141.402 65.4983 140.904C65.5279 140.75 65.5889 140.606 65.6627 140.468C65.6745 140.446 65.89 140.139 65.7344 140.31C65.3356 140.747 64.9088 141.158 64.5028 141.589C64.1451 141.969 64.2261 141.573 64.3623 141.287C64.6374 140.71 65.0639 140.227 65.4086 139.694C65.6001 139.398 65.51 139.743 65.4206 139.87C65.0877 140.344 64.697 140.786 64.3414 141.242C64.1938 141.432 64.0482 141.623 63.9019 141.813C63.818 141.923 63.736 142.034 63.6508 142.142C63.6264 142.173 63.6126 142.235 63.5731 142.232C63.5397 142.229 63.5984 142.17 63.612 142.139C63.6807 141.985 63.7469 141.849 63.8212 141.694C64.0569 141.203 64.2939 140.712 64.5775 140.247C64.5993 140.211 65.247 139.244 64.9721 139.751C64.718 140.219 64.2059 140.543 63.9856 141.015C63.9122 141.173 64.0458 141.091 64.1052 141.03C64.3548 140.775 64.552 140.464 64.7659 140.181C64.9401 139.95 65.1162 139.708 65.3309 139.511C65.4007 139.448 65.6041 139.321 65.4983 139.535C65.2247 140.089 64.7799 140.588 64.4042 141.072C64.2923 141.216 64.1889 141.395 64.0634 141.529C63.9638 141.635 64.1145 141.239 64.177 141.108C64.3281 140.79 64.5128 140.489 64.7031 140.193C64.7724 140.085 64.8444 139.98 64.9153 139.873C64.9898 139.762 65.2584 139.52 65.1246 139.529C64.9336 139.543 64.4115 140.241 64.3264 140.337C63.9427 140.767 63.5864 141.221 63.1905 141.64C62.8938 141.954 63.3381 141.274 63.3878 141.165C63.6213 140.651 64.5942 139.28 64.1889 139.673C63.6418 140.203 63.1504 140.782 62.5866 141.299C62.3463 141.519 61.9911 141.881 62.189 141.287C62.4264 140.575 62.9334 140.04 63.3818 139.458C63.3978 139.437 63.4444 139.373 63.4296 139.395C63.1774 139.767 62.8994 140.123 62.6045 140.462C62.2977 140.815 61.9705 141.154 61.6121 141.455C61.5947 141.469 61.287 141.763 61.361 141.52C61.5339 140.952 61.9595 140.438 62.2757 139.942C62.3354 139.848 62.3107 139.868 62.2129 139.945C61.7237 140.329 61.2436 140.718 60.7272 141.066C60.6998 141.084 59.7037 141.834 59.7945 141.431C59.8835 141.036 60.1053 140.649 60.3206 140.313C60.4703 140.079 61.03 139.415 60.491 140.011C60.022 140.529 59.5346 141.108 58.9455 141.496C58.646 141.694 59.1295 140.603 59.1847 140.516C59.4074 140.165 60.2348 139.232 59.932 139.517C59.4192 140 58.9513 140.528 58.4642 141.036C58.4624 141.038 58.2645 141.272 58.2221 141.269C58.1841 141.266 58.2256 141.193 58.234 141.156C58.2563 141.057 58.3177 140.829 58.3417 140.749C58.4334 140.443 58.5443 140.147 58.6795 139.858C58.7096 139.794 58.8114 139.612 58.7602 139.661C58.5945 139.82 58.4558 140.006 58.2998 140.175C57.9183 140.589 57.5256 140.994 57.0861 141.347C56.9598 141.448 56.6358 141.742 56.4434 141.765C56.3139 141.781 56.7233 140.491 56.7692 140.39C56.8477 140.219 56.9509 140.058 57.0263 139.885C57.1306 139.647 56.6762 140.271 56.4823 140.444C56.1558 140.736 55.8041 140.994 55.43 141.221C55.3595 141.264 54.9405 141.566 54.8202 141.538C54.6857 141.508 55.3178 140.327 55.3582 140.247C55.4275 140.109 55.5297 139.919 55.2865 140.047C54.7381 140.334 54.2849 140.843 53.8157 141.236C53.3984 141.586 52.9673 141.917 52.5363 142.25C52.3455 142.397 52.2338 142.529 52.3091 142.202C52.4569 141.558 52.7871 141.043 53.0773 140.462C53.1077 140.401 53.1911 140.239 53.1282 140.265C52.893 140.36 52.5608 140.719 52.3838 140.854C52.2042 140.99 50.5605 142.322 50.5154 141.646C50.4784 141.091 50.5519 140.54 50.7067 140.008C50.7486 139.864 50.7882 139.717 50.8323 139.574C50.8789 139.423 50.6823 139.856 50.5812 139.978C50.1425 140.507 49.6029 140.977 49.0626 141.401C48.8236 141.588 49.194 140.468 49.2599 140.319C49.3342 140.15 49.4466 139.981 49.4931 139.801C49.5328 139.648 49.2695 140.028 49.1822 140.16C48.9894 140.451 48.7933 140.734 48.5663 141C48.4401 141.148 48.0563 141.707 47.819 141.712C47.5697 141.716 48.0739 140.474 48.106 140.402C48.22 140.148 48.347 139.896 48.4856 139.655C48.5042 139.623 48.7596 139.296 48.6351 139.583C48.5643 139.746 47.6968 141.282 47.4961 141.197C47.2953 141.113 47.8464 139.697 47.9535 139.508C48.238 139.008 47.7858 139.685 47.7233 139.783C47.5034 140.131 47.2517 140.437 46.97 140.737C46.9155 140.795 46.2936 141.554 46.1688 141.514C46.0446 141.475 46.3975 140.177 46.4319 140.082C46.4652 139.991 46.8837 139.154 46.7667 139.667C46.5402 140.66 46.135 141.631 46.0074 142.644C45.9338 143.229 46.431 142.377 46.5007 142.274C46.5742 142.164 46.672 141.97 46.7787 141.879C46.9406 141.741 46.6634 142.288 46.5933 142.489C46.5723 142.549 46.1245 143.892 46.2496 143.882C46.4739 143.865 46.7407 143.199 46.8474 143.036C47.1196 142.62 47.0621 142.926 46.9521 143.218C46.9303 143.276 46.6359 143.88 46.8295 143.631C47.1224 143.254 47.5922 142.757 48.106 142.722C48.4193 142.701 48.3084 143.277 48.2734 143.445C48.2551 143.533 47.9673 144.165 48.1687 143.93C48.4843 143.562 48.753 143.133 49.1762 142.877C49.5848 142.63 49.2798 143.215 49.2001 143.359C48.9617 143.788 49.0844 143.488 49.2748 143.242C49.3995 143.081 50.2375 142.099 50.5334 142.387C50.7552 142.604 50.0521 143.501 49.9385 143.712C49.8113 143.947 50.0962 143.454 50.1507 143.392C50.1802 143.358 50.4976 143.053 50.4796 143.117C50.4075 143.369 50.1598 143.594 50.0132 143.807C49.9569 143.889 50.1994 143.334 50.2404 143.278C50.2947 143.204 51.2206 142.312 51.203 142.602C51.185 142.899 51.0011 143.151 50.904 143.422C50.871 143.514 50.8482 143.577 50.9698 143.517C51.2803 143.365 51.5652 143.153 51.8965 143.045C52.2195 142.939 51.5541 143.879 51.5079 143.99C51.4778 144.061 51.6492 143.921 51.7082 143.87C51.9326 143.678 52.1722 143.515 52.4286 143.368C52.5304 143.309 53.2451 142.823 53.1341 143.203C53.0755 143.404 52.9815 143.596 52.895 143.786C52.8597 143.864 52.7658 144.094 52.8232 144.031C53.2463 143.568 53.6941 143.187 54.2462 142.88C54.6856 142.636 54.0723 143.511 54.013 143.595C53.9687 143.658 53.4632 144.32 53.6364 144.151C54.1712 143.629 54.6605 143.13 55.4061 142.925C55.793 142.819 55.1868 143.759 55.1251 143.912C55.1076 143.955 55.0238 144.16 55.1669 144.052C55.4747 143.821 55.6859 143.524 56.0279 143.323C56.1305 143.263 57.397 142.608 57.4568 142.83C57.5397 143.137 57.1299 143.586 57.0383 143.876C57.003 143.988 57.2411 143.648 57.3313 143.595C57.6806 143.388 58.087 143.254 58.4732 143.138C58.786 143.043 59.3043 142.847 59.645 142.922C59.7303 142.941 59.4595 143.465 59.4388 143.544C59.4212 143.611 59.5393 143.449 59.5912 143.404C59.7949 143.225 60.0664 143.129 60.3326 143.093C60.8581 143.022 60.406 143.713 60.2908 143.888C60.279 143.906 60.0568 144.296 60.0935 144.271C60.1505 144.23 60.1848 144.106 60.216 144.052C60.3238 143.868 60.4711 143.725 60.6495 143.607C60.8741 143.459 61.7001 142.995 61.9947 143.191C62.0914 143.256 62.0497 143.763 62.1561 143.726C62.3263 143.669 62.4888 143.476 62.6255 143.371C62.8143 143.225 63.0128 143.107 63.2234 142.997C63.4036 142.903 63.0863 143.558 63.0709 143.589C62.9719 143.789 62.8109 144.015 62.772 144.241C62.7413 144.418 63.0926 144.063 63.2144 143.93C63.4614 143.66 63.8141 143.216 64.2009 143.135C64.3957 143.094 64.3444 143.444 64.3444 143.535C64.3444 143.62 64.2802 144.008 64.464 143.99C64.8434 143.951 65.0759 143.445 65.4295 143.362C65.4909 143.347 65.2208 144.183 65.1934 144.271C65.0747 144.65 65.1862 144.295 65.2532 144.145C65.354 143.919 65.5009 143.717 65.6268 143.505C65.6745 143.425 65.7891 143.116 65.8809 143.057C66.0177 142.968 65.8137 143.376 65.7673 143.532C65.6893 143.795 65.6158 144.06 65.5312 144.321C65.3666 144.829 65.8319 144.128 65.8869 144.037C66.0479 143.772 66.1902 143.497 66.3383 143.224C66.4072 143.098 66.437 143.096 66.437 143.248C66.437 143.407 66.3034 143.691 66.3443 143.834C66.4137 144.077 66.5942 143.393 66.6881 143.159C66.7621 142.973 66.6037 143.182 66.5834 143.206C66.3981 143.429 66.2196 143.657 66.0483 143.891C65.9325 144.049 65.8282 144.253 65.6119 144.253C65.0623 144.253 64.6224 143.822 64.0933 143.822C63.4213 143.822 62.8304 144.253 62.1591 144.253C61.6579 144.253 63.1616 144.253 63.6628 144.253C63.7215 144.253 64.6495 144.164 64.5237 144.372C64.2789 144.777 63.587 144.869 63.1755 144.913C62.2712 145.01 61.3474 144.944 60.4522 144.803C60.0074 144.732 59.5986 144.561 59.1608 144.48C59.0223 144.454 58.9303 144.435 58.8289 144.333C58.4562 143.961 57.4231 144.299 56.9845 144.357C56.8192 144.379 56.7761 144.413 56.8769 144.217C56.9276 144.118 57.2555 143.615 57.403 143.673C57.4899 143.706 57.1977 144.181 57.1668 144.238C57.0639 144.428 57.0769 144.232 56.9367 144.181C56.6502 144.076 56.2636 144.145 55.9621 144.145C55.898 144.145 55.6622 144.134 55.8216 144.031C56.1365 143.829 56.8933 143.703 56.004 143.78C54.8981 143.876 53.7749 143.916 52.6648 143.873C52.0522 143.849 53.0882 142.867 53.2059 142.985C53.3535 143.133 53.1836 143.436 53.0863 143.553C52.8733 143.809 52.6657 143.895 52.336 143.87C51.9388 143.839 51.5139 143.721 51.1402 143.586C50.963 143.522 50.9955 143.384 50.9997 143.218C51.0082 142.885 51.147 142.581 51.1581 142.247C51.1734 141.79 51.1385 141.334 51.2149 140.881C51.2675 140.569 50.8953 141.289 50.8443 141.359C50.6902 141.571 50.5193 141.771 50.3779 141.993C50.3408 142.051 50.2524 142.226 50.2524 142.157C50.2524 141.497 50.9585 140.786 51.3644 140.354C51.4011 140.315 52.6727 139.048 52.7365 139.38C52.8155 139.791 52.4755 140.448 52.2971 140.8C52.2482 140.896 52.0511 141.152 52.1297 141.078C52.4977 140.73 52.8247 140.343 53.2119 140.014C53.8743 139.45 54.805 139.039 55.6691 138.908C55.9101 138.871 55.7927 139.104 55.7409 139.236C55.5128 139.818 55.1809 140.363 54.8261 140.875C54.5143 141.324 54.1662 141.746 53.8426 142.187C53.8173 142.221 53.4907 142.598 53.5646 142.722C53.6924 142.937 55.0317 141.214 55.0982 141.135C55.479 140.681 56.1365 139.75 56.7842 139.631C57.1228 139.569 56.718 140.509 56.6915 140.57C56.555 140.883 56.1289 141.811 56.3089 141.52C56.8424 140.66 57.6293 139.952 58.518 139.47C58.6515 139.397 60.6837 138.468 60.7272 138.812C60.7582 139.057 60.6279 139.387 60.5478 139.601C60.3427 140.151 60.0469 140.643 59.7138 141.123C59.7133 141.123 59.2783 141.792 59.4687 141.538C59.6642 141.278 59.9272 141.067 60.1772 140.863C60.3521 140.72 61.5134 139.602 61.7974 139.775C62.0707 139.94 60.6215 141.513 60.506 141.658C59.908 142.405 60.6349 141.512 60.8109 141.311C60.9541 141.147 61.9863 139.831 62.2458 139.972C62.5338 140.128 61.3848 141.92 61.2982 142.079C61.2787 142.115 60.7242 143.329 61.0202 142.776C61.2317 142.38 61.5223 141.978 61.902 141.73C61.9587 141.692 62.4808 141.33 62.473 141.556C62.4635 141.832 62.0313 142.238 62.1203 142.495C62.1421 142.558 62.7371 141.883 62.772 141.843C62.8026 141.808 63.3614 141.289 63.325 141.398C63.2665 141.573 63.0532 141.765 62.9394 141.891C62.6402 142.223 62.3285 142.544 62.0186 142.866C61.739 143.156 61.4394 143.437 61.2234 143.78C61.1765 143.855 61.0979 143.97 61.1188 144.064C61.1706 144.297 61.5596 143.798 61.5822 143.774C62.6321 142.676 63.8174 141.415 65.4385 141.287C65.7384 141.263 65.3259 141.82 65.295 141.897C65.2322 142.053 65.225 142.337 65.2621 142.504C65.3036 142.691 65.774 142.169 65.7942 142.145C65.8399 142.091 66.474 141.324 66.4848 141.353C66.5885 141.633 66.2993 142.244 66.2307 142.519C66.2006 142.639 66.1785 142.773 66.132 142.889C66.1015 142.966 66.1808 142.73 66.2277 142.662C66.3979 142.418 66.3549 143.463 66.1978 142.991C66.1058 142.715 65.2974 142.854 65.0917 142.854C63.9604 142.854 62.7933 142.935 61.6719 142.761C60.8221 142.629 60.0227 142.306 59.2385 141.966C58.7426 141.751 58.0376 141.21 57.4867 141.502C56.6645 141.939 55.9095 142.31 55.0025 142.567C54.6279 142.673 54.2909 142.806 54.2821 142.321C54.2787 142.136 54.3971 141.306 54.1386 141.251C53.7199 141.163 53.1025 141.504 52.6947 141.616C52.1759 141.758 52.1151 141.626 51.7261 141.323C51.5747 141.205 51.2121 141.359 51.0744 141.416C50.848 141.509 50.6389 141.636 50.4317 141.765C50.3313 141.828 50.1541 141.994 50.0192 141.981C49.7781 141.957 49.6743 142.448 49.4392 142.369" stroke="#FFFA79" stroke-linecap="round" stroke-linejoin="round"/>
<path d="M56.4934 129.189C56.965 129.002 57.593 128.589 58.1004 128.843C58.5034 129.044 58.522 129.189 59.0463 129.189C59.3796 129.189 60.6319 129.261 60.8873 129.006" stroke="#707070" stroke-linecap="round" stroke-linejoin="round"/>
<path d="M62.9011 128.914C63.3192 128.53 63.9163 128.065 64.4573 128.436C64.7457 128.634 65.3388 128.729 65.688 128.822C65.9772 128.9 66.2208 128.914 66.522 128.914C66.8555 128.914 67.2934 128.639 67.5697 128.731" stroke="#707070" stroke-linecap="round" stroke-linejoin="round"/>
<path d="M47.1563 131.843C47.6665 131.349 47.7 131.713 48.2548 131.66C48.481 131.639 48.6611 131.465 48.8956 131.477C49.0547 131.486 49.1895 131.569 49.3533 131.569" stroke="#707070" stroke-linecap="round" stroke-linejoin="round"/>
<path d="M51.5502 131.843C53.4207 131.599 55.2322 131.569 57.1138 131.569C57.3593 131.569 57.8411 131.41 58.0495 131.497C58.4104 131.649 58.9674 131.613 59.3311 131.497C59.4921 131.446 59.7575 131.617 59.921 131.64C60.3897 131.705 60.8722 131.741 61.345 131.752C61.7581 131.761 61.9736 131.995 62.3519 131.843" stroke="#707070" stroke-linecap="round" stroke-linejoin="round"/>
<path d="M64.3658 131.569C65.1726 131.569 66.3271 131.473 67.0204 131.935" stroke="#707070" stroke-linecap="round" stroke-linejoin="round"/>
<path d="M47.1563 134.589C48.0286 134.46 48.9247 134.505 49.7906 134.335C50.154 134.264 50.539 134.132 50.9094 134.132C51.5078 134.132 52.1103 134.406 52.7402 134.406" stroke="#707070" stroke-linecap="round" stroke-linejoin="round"/>
<path d="M54.7541 134.589C55.4257 134.589 56.0866 134.498 56.768 134.498" stroke="#707070" stroke-linecap="round" stroke-linejoin="round"/>
<path d="M46.9732 137.519C47.4232 137.509 48.0074 137.307 48.448 137.478C48.7915 137.612 49.1654 137.772 49.5363 137.793C49.9025 137.814 50.2178 137.976 50.5941 137.976C50.9874 137.976 51.1801 137.702 51.5502 137.702C51.776 137.702 52.1367 137.824 52.3334 137.788C52.6317 137.734 52.7779 137.61 53.1064 137.61C53.5336 137.61 53.9608 137.61 54.388 137.61" stroke="#707070" stroke-linecap="round" stroke-linejoin="round"/>
<path d="M56.5849 137.702C57.2166 137.702 57.7576 137.885 58.375 137.885C58.7814 137.885 59.1208 137.61 59.5142 137.61" stroke="#707070" stroke-linecap="round" stroke-linejoin="round"/>
<path d="M60.8873 137.793C62.0667 137.793 63.185 137.885 64.3658 137.885C64.5435 137.885 64.7657 137.923 64.9354 137.865C65.0207 137.835 65.3531 137.567 65.4439 137.631C65.6317 137.762 66.0128 137.794 66.1966 137.702" stroke="#707070" stroke-linecap="round" stroke-linejoin="round"/>
<path d="M46.9732 140.173C48.936 140.173 50.9302 140.082 52.8775 140.082C53.2014 140.082 53.5236 139.899 53.8794 139.899C54.232 139.899 54.5846 139.899 54.9372 139.899C55.7613 139.899 56.5701 140.082 57.4138 140.082C58.3941 140.082 59.3099 140.238 60.2923 140.087C61.0089 139.977 61.7651 140.172 62.4841 140.062C63.642 139.883 65.2436 140.329 66.2881 139.807" stroke="#707070" stroke-linecap="round" stroke-linejoin="round"/>
<path d="M46.6071 142.737C46.8973 142.685 47.2457 142.543 47.5428 142.553C47.7167 142.559 47.8179 142.719 47.9802 142.737C48.4698 142.788 49.0385 142.776 49.5262 142.731C50.0404 142.685 50.4626 142.828 51.001 142.828" stroke="#707070" stroke-linecap="round" stroke-linejoin="round"/>
<path d="M52.9233 142.553C54.1801 142.787 55.4966 142.737 56.7731 142.737C57.7652 142.737 58.7602 142.95 59.743 142.731C60.1004 142.652 60.2884 142.558 60.694 142.553C61.2638 142.547 61.8091 142.449 62.3824 142.462C62.6753 142.468 62.8042 142.737 63.0842 142.737C63.2978 142.737 63.5114 142.737 63.725 142.737" stroke="#707070" stroke-linecap="round" stroke-linejoin="round"/>
<path d="M64.5489 142.828C64.9455 142.828 65.3422 142.828 65.7389 142.828" stroke="#707070" stroke-linecap="round" stroke-linejoin="round"/>
<path d="M46.424 144.933C47.5462 144.933 48.6684 144.933 49.7906 144.933C50.5375 144.933 51.1117 145.533 51.8452 145.483C52.1178 145.464 52.4767 145.338 52.7453 145.254C53.1721 145.121 53.7189 145.188 54.1642 145.137C54.7172 145.074 55.2953 145.117 55.8526 145.117" stroke="#707070" stroke-linecap="round" stroke-linejoin="round"/>
<path d="M58.0495 145.117C58.753 145.117 59.4565 145.117 60.16 145.117C60.664 145.117 61.3407 144.997 61.8027 145.228C62.0425 145.348 62.2511 145.297 62.4943 145.208C63.0451 145.008 63.7375 145.117 64.3149 145.117C64.8201 145.117 65.3252 145.117 65.8304 145.117" stroke="#707070" stroke-linecap="round" stroke-linejoin="round"/>
<path d="M46.2409 147.588C48.2272 146.813 50.4953 148 52.5571 147.588" stroke="#707070" stroke-linecap="round" stroke-linejoin="round"/>
<path d="M54.7541 147.588C56.0981 147.332 57.5979 147.497 58.9649 147.497" stroke="#707070" stroke-linecap="round" stroke-linejoin="round"/>
<path d="M46.0377 149.951C46.5707 149.939 47.0828 149.811 47.6169 149.811C48.0553 149.811 48.4804 150.118 48.9152 150.006C49.3419 149.896 49.6171 149.951 50.0421 149.951C50.3385 149.951 50.5588 149.924 50.8102 150.092" stroke="#707070" stroke-linecap="round" stroke-linejoin="round"/>
<path d="M52.3542 150.232C53.667 150.471 54.9672 150.513 56.3001 150.513C57.4624 150.513 58.6316 150.092 59.7975 150.092C61.0563 150.092 62.3395 150.162 63.5835 150.162C64.051 150.162 64.4894 150.372 64.9716 150.372C65.2438 150.372 65.5008 150.388 65.7592 150.302" stroke="#707070" stroke-linecap="round" stroke-linejoin="round"/>
<path d="M46.1079 152.688C47.1384 152.688 48.2782 152.553 49.2973 152.704C50.0419 152.814 50.7689 152.945 51.512 153.055C52.6033 153.217 53.7739 153.11 54.8808 153.11" stroke="#707070" stroke-linecap="round" stroke-linejoin="round"/>
<path d="M68.2156 137.038C68.5015 137.038 68.7875 137.038 69.0734 137.038C69.3611 137.038 69.4228 137.215 69.6544 137.318C70.1684 137.547 69.8463 138.472 69.7596 138.862C69.6518 139.348 69.6193 139.765 69.6193 140.266C69.6193 140.803 69.9574 141.115 70.4459 141.303C70.8932 141.475 70.0658 141.887 69.9858 142.021C69.88 142.197 70.0381 142.524 70.1106 142.687C70.2738 143.055 70.3211 143.616 70.3211 144.017C70.3211 144.645 70.3746 145.068 69.9 145.53C69.4374 145.98 68.6118 145.881 68.0051 145.881" stroke="#707070" stroke-linecap="round" stroke-linejoin="round"/>
<path d="M72.055 139.517C72.108 139.942 72.1787 140.359 72.1787 140.787C72.1787 141.009 72.2007 141.244 72.2612 141.456" stroke="#707070" stroke-linecap="round" stroke-linejoin="round"/>
<path d="M72.22 143.024C72.4291 143.172 72.3136 143.027 72.2704 143.075C72.2402 143.108 72.2664 143.215 72.3025 143.107" stroke="#707070" stroke-linecap="round" stroke-linejoin="round"/>
<path d="M73.7052 139.476C73.7503 140.153 73.7875 140.878 73.9527 141.539" stroke="#707070" stroke-linecap="round" stroke-linejoin="round"/>
<path d="M74.0765 142.942C74.045 142.984 73.8846 143.149 73.971 143.212C73.9955 143.23 74.1029 143.251 74.1154 143.207C74.1307 143.154 74.1177 143.086 74.1177 143.189" stroke="#707070" stroke-linecap="round" stroke-linejoin="round"/>
<path d="M75.3141 139.27C75.3904 139.719 75.3546 140.168 75.4287 140.613C75.4729 140.878 75.5617 141.145 75.5617 141.415" stroke="#707070" stroke-linecap="round" stroke-linejoin="round"/>
<path d="M75.7679 142.818C75.751 142.864 75.6487 143.061 75.7679 143.061C75.8279 143.061 75.8354 143.028 75.8505 142.983" stroke="#707070" stroke-linecap="round" stroke-linejoin="round"/>
</svg>

