<?xml version="1.0" standalone="no"?>
<!DOCTYPE svg PUBLIC "-//W3C//DTD SVG 20010904//EN"
 "http://www.w3.org/TR/2001/REC-SVG-20010904/DTD/svg10.dtd">
<svg version="1.0" xmlns="http://www.w3.org/2000/svg"
 width="512.000000pt" height="512.000000pt" viewBox="0 0 512.000000 512.000000"
 preserveAspectRatio="xMidYMid meet">
<metadata>
Created by potrace 1.11, written by Peter Selinger 2001-2013
</metadata>
<g transform="translate(0.000000,512.000000) scale(0.100000,-0.100000)"
fill="#000000" stroke="none">
<path d="M1655 5113 c-39 -5 -204 -32 -230 -37 -36 -8 -170 -46 -185 -53 -8
-3 -18 -7 -22 -8 -5 -2 -9 -3 -10 -5 -2 -1 -10 -3 -18 -5 -32 -6 -209 -91
-286 -136 -246 -146 -449 -340 -606 -579 -153 -234 -245 -488 -287 -790 -5
-36 -9 -463 -9 -950 l0 -885 24 -135 c14 -74 26 -139 28 -145 1 -5 6 -23 10
-40 4 -16 10 -37 13 -45 3 -8 7 -19 9 -25 11 -44 65 -177 105 -258 140 -281
358 -531 615 -704 198 -134 453 -238 699 -285 120 -23 123 -23 1035 -23 503 0
941 3 973 7 476 61 885 289 1207 674 55 66 154 221 204 322 85 170 136 326
173 522 16 87 18 173 18 1010 0 503 -3 940 -7 970 -15 112 -58 306 -74 332 -3
5 -7 20 -10 34 -7 37 -92 228 -141 315 -175 311 -454 577 -774 735 -168 83
-358 145 -514 168 -23 4 -52 9 -65 13 -26 7 -1821 13 -1875 6z"/>
</g>
</svg>
